<?xml version="1.0" encoding="utf-8"?>
<!-- Generator: Adobe Illustrator 24.1.0, SVG Export Plug-In . SVG Version: 6.00 Build 0)  -->
<svg version="1.1" id="Layer_1" xmlns="http://www.w3.org/2000/svg" xmlns:xlink="http://www.w3.org/1999/xlink" x="0px" y="0px"
	 width="160" height="95" viewBox="0 0 131 78.4" style="enable-background:new 0 0 131 78.4;" xml:space="preserve">
<style type="text/css">
	.st0{fill:#FFFFFF;}
	.st1{fill:url(#SVGID_1_);}
	.st2{opacity:0.2;fill:#0B508C;enable-background:new    ;}
	.st3{opacity:0.25;fill:#0B508C;enable-background:new    ;}
	.st4{fill:#24FFB6;}
</style>
<g id="Layer_2_1_">
	<g id="Layer_1-2">
		<g id="Ideas">
			<path class="st0" d="M20.5,53h0.7l0.1,1.3h0.1c0.9-0.9,1.9-1.6,3.1-1.6c1.9,0,2.8,1.2,2.8,3.5v5.8h-0.8v-5.8c0-2-0.6-2.9-2.1-2.9
				c-1.1,0-1.9,0.5-3,1.7V62h-0.9L20.5,53L20.5,53z"/>
			<path class="st0" d="M33.3,52.8c2.2,0,3.5,1.5,3.5,4.2c0,0.3,0,0.4,0,0.7h-6.6c0,2.2,1.3,4,3.4,4c0.9,0,1.7-0.3,2.4-0.8l0.4,0.6
				c-0.8,0.5-1.8,0.9-2.9,0.9c-2.3,0-4.2-1.8-4.2-4.8S31.2,52.8,33.3,52.8z M36,57c0-2.3-1.1-3.5-2.7-3.5s-3,1.3-3.1,3.5H36z"/>
			<path class="st0" d="M37.5,53h0.9l1.6,5.8c0.3,0.8,0.4,1.6,0.6,2.4h0.1c0.2-0.8,0.4-1.6,0.7-2.4l1.6-5.8h1l1.6,5.8
				c0.3,0.8,0.4,1.6,0.7,2.4h0.1c0.2-0.8,0.4-1.6,0.6-2.4l1.6-5.8h0.8l-2.7,9.1h-1.1l-1.6-5.7c-0.3-0.9-0.4-1.7-0.7-2.6h0
				c-0.2,0.9-0.4,1.8-0.7,2.6L41.1,62h-1L37.5,53z"/>
			<path class="st0" d="M51.1,48.7h2.2v3.4l-0.1,1.5c0.7-0.7,1.7-1.1,2.7-1.2c2.3,0,3.7,1.9,3.7,4.7c0,3.2-1.9,5-4,5
				c-1-0.1-1.9-0.4-2.5-1.2H53l-0.2,1h-1.7V48.7z M55.2,60.5c1.3,0,2.2-1.1,2.2-3.2c0-1.9-0.6-3-2-3c-0.8,0.1-1.5,0.4-2.1,1.1v4.3
				C53.7,60.2,54.4,60.5,55.2,60.5L55.2,60.5z"/>
			<path class="st0" d="M61.3,52.8h2.2V62h-2.2V52.8z"/>
			<path class="st0" d="M66,54.5h-1.3v-1.6l1.4-0.1l0.3-2.5h1.8v2.5h2.3v1.7h-2.3v4.4c0,1.1,0.4,1.6,1.3,1.6c0.4,0,0.6-0.1,1-0.2
				l0.4,1.6c-0.6,0.2-1.3,0.4-1.9,0.4c-2.2,0-3-1.3-3-3.3V54.5z"/>
			<path class="st0" d="M76.3,52.4c1,0,2,0.4,2.8,1.1l-1.4,2c-0.3-0.3-0.7-0.4-1.1-0.4c-1.3,0-2,0.9-2,2.3s0.8,2.3,1.8,2.3
				c0.5,0,1.1-0.3,1.5-0.6l1.3,2.1c-0.9,0.7-2,1.2-3.1,1.2c-2.7,0-4.8-1.8-4.8-4.9c-0.1-2.6,2-4.9,4.6-4.9
				C75.9,52.4,76.1,52.4,76.3,52.4z"/>
			<path class="st0" d="M80.2,52.6h2.7l0.3,1.6H83c0.4-1.1,1.5-1.8,2.7-1.9c0.4,0,0.8,0.1,1.2,0.2l-0.4,2.8c-0.4,0-0.7-0.1-1.1-0.1
				c-0.9,0.1-1.7,0.7-2,1.6v5.3h-3.3L80.2,52.6L80.2,52.6z"/>
			<path class="st0" d="M91.7,52.4c2.8,0,4.1,2.1,4.1,4.6c0,0.4,0,0.9-0.1,1.3h-5.4c0.2,1,1.2,1.7,2.2,1.6c0.7,0,1.3-0.2,2-0.5
				l1.1,1.9c-1,0.7-2.2,1.1-3.4,1.1c-2.8,0-4.9-1.8-4.9-4.9S89.3,52.4,91.7,52.4z M93,56.3c0-0.8-0.3-1.4-1.3-1.4
				c-0.7,0-1.3,0.4-1.5,1.4H93z"/>
			<path class="st0" d="M96.3,52.6h3.2l0.7,4c0.2,1,0.3,1.9,0.4,2.9h0.1c0.2-1,0.3-2,0.5-2.9l0.9-4h2.8l0.9,4c0.3,1,0.4,1.9,0.5,2.9
				h0.1c0.2-1,0.3-1.9,0.4-2.9l0.7-4h3.1l-2.2,9.4h-3.8l-0.7-3.3c-0.2-0.9-0.3-1.7-0.4-2.8h-0.1c-0.2,1.1-0.3,1.9-0.4,2.8l-0.6,3.3
				h-3.7L96.3,52.6z"/>
			
				<linearGradient id="SVGID_1_" gradientUnits="userSpaceOnUse" x1="78.3035" y1="-352.5254" x2="61.0009" y2="-375.0441" gradientTransform="matrix(1 0 0 -1 0 -335.9)">
				<stop  offset="0" style="stop-color:#0B508C"/>
				<stop  offset="0.2" style="stop-color:#0B538D"/>
				<stop  offset="0.35" style="stop-color:#0D5D8F"/>
				<stop  offset="0.49" style="stop-color:#0F6D93"/>
				<stop  offset="0.62" style="stop-color:#128498"/>
				<stop  offset="0.74" style="stop-color:#17A2A0"/>
				<stop  offset="0.86" style="stop-color:#1CC6A8"/>
				<stop  offset="0.97" style="stop-color:#22F1B3"/>
				<stop  offset="1" style="stop-color:#24FFB6"/>
			</linearGradient>
			<path class="st1" d="M59.2,17.8c1.1-1.3,2.7-1.9,4.4-1.7L90.5,20c1.4,0.2,2,1.3,1.1,2.6L75,45.3c-0.8,1.2-2.4,1.4-3.6,0.6l0,0
				l-0.1-0.1L52,30.8c-1.2-0.9-1.3-2.5-0.4-3.7V27L59.2,17.8z"/>
			<path class="st2" d="M80,38.5c-4.2-0.2-12.7-1.3-12.7-7.4c0-4.3,4.8-9.1,10-13.1l-6.7-1c-3.3,4-5.8,9-5.8,13.4
				c0,6.9,9.3,8,15,8.3L80,38.5z"/>
			<path class="st2" d="M78.6,28.9c-3.5,2-6,4.4-5.2,6.7c0.5,1.4,3,2.2,5.8,2.5c0.4,0,0.8,0.1,1.2,0.1l0.4-0.4
				c-3.1-0.2-5.8-0.8-6.4-2.2c-0.7-1.6,2.6-4,6.7-5.8c2.4-1.1,5-2,7.6-2.8l2.2-3C86.4,25.2,82.4,26.8,78.6,28.9z"/>
			<path class="st3" d="M78.5,26.5c4.3-2.3,8.7-4.3,13.3-5.9c-0.3-0.4-0.8-0.6-1.3-0.7l-4.9-0.7c-3.3,1.8-6.6,3.8-9.6,5.9
				c-3.5,2.4-6.2,5.2-6.2,8.2c0,3.5,6.2,4.9,10.2,5.2l0.2-0.3l0.1-0.2c-0.4,0-0.7-0.1-1.2-0.1c-3.6-0.4-8-1.4-8-4.4
				C71.1,31.6,74.7,28.8,78.5,26.5z"/>
			<path class="st0" d="M79.2,37c0.6,0.1,1.3,0.1,1.9,0.2l-0.4,0.6c-5.7-0.2-15.8-1.1-15.8-8.3c0-4,2.2-8.6,5.1-12.5l6.4,0.9
				c-4.8,3.9-8.9,8.4-8.9,12.3c0,6,8.6,7.2,12.8,7.4c-4-0.4-10.3-1.6-10.3-5.2c0-3,2.8-5.8,6.2-8.2c2.6-1.9,5.4-3.6,8.3-5.2l6.7,1
				c-4.2,1.6-8.4,3.5-12.3,5.7c-3.8,2.2-7.4,5-7.4,7C71.1,35.4,75.6,36.6,79.2,37z M80.8,28.6c2.8-1.2,5.7-2.2,8.6-3.1l2.2-3
				c-2.4,0.7-8.5,2.8-12.9,5.3c-3.5,2-6,4.4-5.2,6.7c0.5,1.4,3,2.2,5.8,2.4c0.7,0.1,1.3,0.1,1.9,0.1l0.4-0.4
				c-3.4-0.1-6.4-0.8-7.2-2.3C73.4,32.7,76.7,30.4,80.8,28.6L80.8,28.6z"/>
			<circle class="st4" cx="62.4" cy="49.9" r="1.3"/>
		</g>
	</g>
</g>
</svg>
