<?xml version="1.0" encoding="utf-8"?>
<!-- Generator: Adobe Illustrator 24.1.0, SVG Export Plug-In . SVG Version: 6.00 Build 0)  -->
<svg version="1.1" id="https:_www.flaticon.com_free-icon_layers_149298"
	 xmlns="http://www.w3.org/2000/svg" xmlns:xlink="http://www.w3.org/1999/xlink" x="0px" y="0px" width="60" height="60" viewBox="0 0 57.8 56.1"
	 style="enable-background:new 0 0 57.8 56.1;" xml:space="preserve">
<style type="text/css">
	.st0{fill:#00CE7C;}
	.st1{fill:url(#Path_2747_1_);}
</style>
<ellipse id="Ellipse_5" class="st0" cx="47.4" cy="26.5" rx="1.1" ry="1.1"/>
<ellipse id="Ellipse_6" class="st0" cx="9.5" cy="26.5" rx="1.1" ry="1.1"/>
<ellipse id="Ellipse_7" class="st0" cx="12.6" cy="29.6" rx="1.1" ry="1.1"/>
<ellipse id="Ellipse_8" class="st0" cx="19" cy="29.6" rx="1.1" ry="1.1"/>
<ellipse id="Ellipse_9" class="st0" cx="15.8" cy="32.8" rx="1.1" ry="1.1"/>
<ellipse id="Ellipse_10" class="st0" cx="22.1" cy="32.8" rx="1.1" ry="1.1"/>
<ellipse id="Ellipse_11" class="st0" cx="25.3" cy="35.9" rx="1.1" ry="1.1"/>
<ellipse id="Ellipse_12" class="st0" cx="31.6" cy="35.9" rx="1.1" ry="1.1"/>
<ellipse id="Ellipse_13" class="st0" cx="34.7" cy="32.8" rx="1.1" ry="1.1"/>
<ellipse id="Ellipse_14" class="st0" cx="28.4" cy="39.1" rx="1.1" ry="1.1"/>
<ellipse id="Ellipse_15" class="st0" cx="37.9" cy="29.6" rx="1.1" ry="1.1"/>
<ellipse id="Ellipse_16" class="st0" cx="44.2" cy="29.6" rx="1.1" ry="1.1"/>
<ellipse id="Ellipse_17" class="st0" cx="41.1" cy="32.8" rx="1.1" ry="1.1"/>
<linearGradient id="Path_2747_1_" gradientUnits="userSpaceOnUse" x1="-363.1015" y1="275.0597" x2="-363.1015" y2="274.0597" gradientTransform="matrix(57.826 0 0 -56.087 21025.6191 15427.2725)">
	<stop  offset="0" style="stop-color:#0B508C"/>
	<stop  offset="1" style="stop-color:#24FFB6"/>
</linearGradient>
<path id="Path_2747" class="st1" d="M47.9,33.6l9.9-5.6l-10.2-5.8l10.2-5.8L28.9,0L0,16.4l10.2,5.8L0,28l10.2,5.8L0,39.6l28.9,16.5
	l28.9-16.5l-10.2-5.8l0.1,0C47.8,33.7,47.9,33.7,47.9,33.6z M28.9,2.4l24.7,14l-8,4.6l0,0l-16.6,9.5L4.3,16.4L28.9,2.4z M11.7,23.8
	c0.2,0.5,0.9,0.7,1.4,0.5c0.1,0,0.2-0.1,0.3-0.2l2.4,1.4c-0.6,0-1,0.5-1,1.1c0,0.6,0.5,1,1.1,1c0.6,0,1-0.5,1-1.1
	c0-0.2-0.1-0.3-0.1-0.5l10.9,6.2c-0.1,0.2-0.2,0.4-0.2,0.6c0,0.6,0.5,1,1.1,1c0.5,0,1-0.5,1-1c0-0.1,0-0.1,0-0.2l10.6-6
	c0.1,0.5,0.5,0.9,1,0.9c0.6,0,1.1-0.5,1.1-1.1c0-0.3-0.2-0.6-0.4-0.8l2.3-1.3c0.1,0,0.1,0,0.2,0c0.5,0,0.9-0.3,1-0.7l0.3-0.2l8,4.6
	l-2.1,1.2c-0.2-0.5-0.9-0.8-1.4-0.5c-0.4,0.2-0.6,0.5-0.6,1c0,0.2,0.1,0.4,0.2,0.6l-4.2,2.4l0,0l-6.7,3.8c0.1-0.2,0.1-0.3,0.1-0.5
	c0-0.6-0.5-1.1-1-1.1c-0.6,0-1.1,0.5-1.1,1c0,0.6,0.4,1,1,1.1l-2.4,1.4c-0.4-0.4-1.1-0.4-1.5,0c-0.2,0.2-0.3,0.5-0.3,0.7
	c0,0.1,0,0.2,0,0.2l-4.8,2.8l-5.8-3.3c-0.1-0.4-0.5-0.7-1-0.7c-0.1,0-0.1,0-0.2,0l-2.3-1.3c0.3-0.2,0.4-0.5,0.4-0.8
	c0-0.6-0.5-1.1-1.1-1.1c-0.5,0-1,0.4-1,0.9l-10.6-6c0.1-0.5-0.1-1-0.7-1.2c-0.1,0-0.2,0-0.4,0c-0.2,0-0.5,0.1-0.7,0.2L4.3,28
	L11.7,23.8z M53.6,39.6L28.9,53.7L4.3,39.6l8-4.6l16.6,9.5L45.5,35L53.6,39.6z"/>
</svg>
