<?xml version="1.0" encoding="utf-8"?>
<!-- Generator: Adobe Illustrator 24.1.0, SVG Export Plug-In . SVG Version: 6.00 Build 0)  -->
<svg version="1.1" id="Layer_1" xmlns="http://www.w3.org/2000/svg" xmlns:xlink="http://www.w3.org/1999/xlink" x="0px" y="0px"
	 width="60" height="60" viewBox="0 0 59.1 56.1" style="enable-background:new 0 0 59.1 56.1;" xml:space="preserve">
<style type="text/css">
	.st0{fill:url(#https:_www.flaticon.com_free-icon_3d_1077703_1_);}
</style>
<linearGradient id="https:_www.flaticon.com_free-icon_3d_1077703_1_" gradientUnits="userSpaceOnUse" x1="29.542" y1="-2.384186e-07" x2="29.542" y2="56.0863">
	<stop  offset="0" style="stop-color:#0B508C"/>
	<stop  offset="1" style="stop-color:#24FFB6"/>
</linearGradient>
<path id="https:_www.flaticon.com_free-icon_3d_1077703" transform="translate(0)" class="st0" d="M40.6,39.9
	c-0.6,0-1.2,0.5-1.2,1.2c0,0.6,0.5,1.2,1.2,1.2c0.6,0,1.2-0.5,1.2-1.2c0,0,0,0,0,0C41.8,40.5,41.3,39.9,40.6,39.9z M30.7,19.6
	c0-0.6-0.5-1.2-1.2-1.2s-1.2,0.5-1.2,1.2c0,0.6,0.5,1.2,1.2,1.2S30.7,20.3,30.7,19.6L30.7,19.6z M18.5,42.2c0.6,0,1.2-0.5,1.2-1.2
	c0-0.6-0.5-1.2-1.2-1.2c-0.6,0-1.2,0.5-1.2,1.2c0,0,0,0,0,0C17.3,41.7,17.8,42.2,18.5,42.2z M58.4,47.7L52.2,45V19.6
	c0-0.5-0.3-0.9-0.7-1.1L30.7,9.6V1.2c0-0.6-0.5-1.2-1.2-1.2c-0.6,0-1.2,0.5-1.2,1.2v8.5L7.6,18.6c-0.4,0.2-0.7,0.6-0.7,1.1V45
	l-6.2,2.8c-0.6,0.3-0.9,0.9-0.6,1.5c0.3,0.6,0.9,0.9,1.5,0.6c0,0,0,0,0,0L8.1,47l21,9c0.3,0.1,0.6,0.1,0.9,0l21-9l6.5,2.9
	c0.6,0.3,1.3,0,1.5-0.6S59,48,58.4,47.7C58.4,47.7,58.4,47.7,58.4,47.7L58.4,47.7z M28.4,12.1V15c0,0.6,0.5,1.2,1.2,1.2
	c0.6,0,1.2-0.5,1.2-1.2l0,0v-2.9l17.4,7.5l-18.5,8l-18.5-8L28.4,12.1z M15.3,42.5c-0.3-0.6-0.9-0.8-1.5-0.6l-4.5,2V21.4l19.2,8.2
	v23.6L11,45.7l3.8-1.7C15.3,43.8,15.6,43.1,15.3,42.5z M30.7,53.2V29.6l19.2-8.2v22.6l-4.5-2c-0.6-0.3-1.3,0-1.5,0.6s0,1.3,0.6,1.5
	c0,0,0,0,0,0l3.8,1.7L30.7,53.2z"/>
</svg>
