<?xml version="1.0" encoding="utf-8"?>
<!-- Generator: Adobe Illustrator 24.1.0, SVG Export Plug-In . SVG Version: 6.00 Build 0)  -->
<svg version="1.1" id="https:_www.flaticon.com_free-icon_layers_149298"
	 xmlns="http://www.w3.org/2000/svg" xmlns:xlink="http://www.w3.org/1999/xlink" x="0px" y="0px" width="60" height="60" viewBox="0 0 59.1 56.1"
	 style="enable-background:new 0 0 59.1 56.1;" xml:space="preserve">
<style type="text/css">
	.st0{fill:url(#SVGID_1_);}
	.st1{fill:url(#SVGID_2_);}
</style>
<linearGradient id="SVGID_1_" gradientUnits="userSpaceOnUse" x1="29.5446" y1="1.1607" x2="29.5446" y2="54.9297">
	<stop  offset="0" style="stop-color:#0B508C"/>
	<stop  offset="1" style="stop-color:#24FFB6"/>
</linearGradient>
<path class="st0" d="M15.2,54.9c-0.1,0-0.2,0-0.3-0.1L1.4,50.6c-0.5-0.2-0.8-0.6-0.8-1.1v-14c0-0.2,0-0.3,0.1-0.4l0-0.1l0.7-1.5
	c0.2-0.4,0.6-0.7,1.1-0.7c0.2,0,0.3,0,0.5,0.1c0.3,0.1,0.5,0.4,0.6,0.6c0.1,0.3,0.1,0.6,0,0.9l-0.1,0.3l7.3,2.4V18.2
	c-0.2,0.3-0.6,0.5-0.9,0.5c-0.2,0-0.3,0-0.5-0.1c-0.3-0.1-0.5-0.4-0.6-0.7c-0.1-0.3-0.1-0.6,0-0.9l1.1-2.5c0.2-0.4,0.5-0.6,0.9-0.7
	v-1.1c0-0.1,0-0.2,0.1-0.4c0.1-0.3,0.4-0.6,0.7-0.7c-0.1-0.3-0.1-0.6,0-0.9l1.1-2.5c0.2-0.4,0.6-0.7,1.1-0.7c0.2,0,0.3,0,0.5,0.1
	c0.6,0.3,0.9,1,0.6,1.5l-1.1,2.5c-0.1,0.1-0.1,0.2-0.2,0.3L41,21.2c0.5,0.2,0.8,0.6,0.8,1.1v28.8c0.2-0.3,0.5-0.6,0.9-0.6
	c0,0,2.8-0.2,2.8-0.2c0.7,0,1.2,0.5,1.2,1.1c0,0.3-0.1,0.6-0.3,0.9c-0.2,0.2-0.5,0.4-0.8,0.4L42.8,53l-0.1,0c-0.5,0-0.9-0.3-1.1-0.7
	c0,0,0,0,0,0c-0.2,0.5-0.6,0.8-1.1,0.8l0,0c-0.1,0-0.2,0-0.4-0.1l-0.7-0.2c-0.2,0.2-0.5,0.4-0.8,0.4c0,0-2.8,0.2-2.8,0.2
	c-0.7,0-1.2-0.5-1.2-1.1c0-0.4,0.1-0.7,0.4-0.9l-18.7-6v7.1c0,0,1.5-0.1,1.5-0.1c0.7,0,1.2,0.5,1.2,1.1c0,0.7-0.4,1.2-1.1,1.3
	L15.2,54.9L15.2,54.9z M14,52.1V40.8L2.9,37.1v11.5L14,52.1z M39.4,50.3V24.6l-0.8,0.6c-0.2,0.1-0.4,0.2-0.7,0.2
	c-0.4,0-0.7-0.2-1-0.5c-0.2-0.3-0.2-0.6-0.2-0.9c0.1-0.3,0.2-0.6,0.5-0.8l0.7-0.5l-25.1-8.4v23.6l2.1,0.7l1.8-1.2
	c0.2-0.1,0.4-0.2,0.7-0.2c0.4,0,0.7,0.2,1,0.5c0.2,0.3,0.2,0.6,0.2,0.9c-0.1,0.3-0.2,0.6-0.5,0.8l-1.8,1.2v2.4L39.4,50.3z
	 M22.1,54.4c-0.6,0-1.2-0.5-1.2-1.2c0-0.6,0.5-1.1,1.1-1.2c0,0,2.8-0.2,2.8-0.2c0.7,0,1.2,0.5,1.2,1.1c0,0.7-0.4,1.2-1.1,1.3
	L22.1,54.4z M29,53.9c-0.6,0-1.2-0.5-1.2-1.2c0-0.6,0.5-1.1,1.1-1.2c0,0,2.8-0.2,2.8-0.2c0.7,0,1.2,0.5,1.2,1.1
	c0,0.7-0.4,1.2-1.1,1.3L29,53.9z M49.7,52.5c-0.6,0-1.2-0.5-1.2-1.2c0-0.6,0.5-1.1,1.1-1.2c0,0,2.8-0.2,2.8-0.2
	c0.7,0,1.2,0.5,1.2,1.1c0,0.6-0.4,1.2-1.1,1.3L49.7,52.5z M56.6,52c-0.6,0-1.2-0.5-1.2-1.2c0-0.6,0.5-1.1,1.1-1.2
	c0,0,0.8-0.1,0.8-0.1c0.7,0,1.2,0.5,1.2,1.1c0,0.6-0.4,1.2-1.1,1.3L56.6,52z M20.9,37.2c-0.4,0-0.7-0.2-1-0.5
	c-0.2-0.3-0.2-0.6-0.2-0.9c0.1-0.3,0.2-0.6,0.5-0.8l2.3-1.6c0.2-0.1,0.4-0.2,0.7-0.2c0.4,0,0.7,0.2,1,0.5c0.2,0.3,0.2,0.6,0.2,0.9
	c-0.1,0.3-0.2,0.6-0.5,0.8L21.6,37C21.4,37.1,21.1,37.2,20.9,37.2z M26.6,33.2c-0.4,0-0.7-0.2-1-0.5c-0.2-0.3-0.2-0.6-0.2-0.9
	c0.1-0.3,0.2-0.6,0.5-0.8l2.3-1.6c0.2-0.1,0.4-0.2,0.7-0.2c0.4,0,0.7,0.2,1,0.5c0.4,0.5,0.2,1.3-0.3,1.6L27.2,33
	C27,33.2,26.8,33.2,26.6,33.2z M4,31.3c-0.2,0-0.3,0-0.5-0.1C3,31,2.7,30.3,3,29.7l1.1-2.5c0.2-0.4,0.6-0.7,1.1-0.7
	c0.2,0,0.3,0,0.5,0.1c0.6,0.3,0.9,1,0.6,1.5l-1.1,2.5C4.9,31.1,4.5,31.3,4,31.3z M32.3,29.3c-0.4,0-0.7-0.2-1-0.5
	c-0.4-0.5-0.2-1.3,0.3-1.6l2.3-1.6c0.2-0.1,0.4-0.2,0.7-0.2c0.4,0,0.7,0.2,1,0.5c0.4,0.5,0.2,1.3-0.3,1.6l-2.3,1.6
	C32.7,29.2,32.5,29.3,32.3,29.3z M6.8,25c-0.2,0-0.3,0-0.5-0.1c-0.6-0.3-0.9-1-0.6-1.6l1.1-2.5c0.2-0.4,0.6-0.7,1.1-0.7
	c0.2,0,0.3,0,0.5,0.1c0.6,0.3,0.9,1,0.6,1.5l-1.1,2.5C7.7,24.7,7.3,25,6.8,25z M43.6,21.4c-0.4,0-0.7-0.2-1-0.5
	c-0.2-0.3-0.2-0.6-0.2-0.9c0.1-0.3,0.2-0.6,0.5-0.8l2.3-1.6c0.2-0.1,0.4-0.2,0.7-0.2c0.4,0,0.7,0.2,1,0.5c0.4,0.5,0.2,1.3-0.3,1.6
	l-2.3,1.6C44.1,21.4,43.9,21.4,43.6,21.4z M49.3,17.5c-0.6,0-1.2-0.5-1.2-1.2c0-0.4,0.2-0.7,0.5-1l2.3-1.6c0.2-0.1,0.4-0.2,0.7-0.2
	c0.4,0,0.7,0.2,1,0.5c0.4,0.5,0.2,1.3-0.3,1.6L50,17.3C49.8,17.4,49.5,17.5,49.3,17.5L49.3,17.5z M55,13.6c-0.4,0-0.7-0.2-1-0.5
	c-0.2-0.3-0.2-0.6-0.2-0.9c0.1-0.3,0.2-0.6,0.5-0.8l2.3-1.6c0.2-0.1,0.4-0.2,0.7-0.2c0.4,0,0.7,0.2,1,0.5c0.4,0.5,0.2,1.3-0.3,1.6
	l-2.3,1.6C55.5,13.5,55.2,13.6,55,13.6z M15.2,6c-0.2,0-0.3,0-0.5-0.1c-0.3-0.1-0.5-0.4-0.6-0.7C14,5,14,4.7,14.1,4.4l1.1-2.5
	c0.2-0.4,0.6-0.7,1.1-0.7c0.2,0,0.3,0,0.5,0.1c0.3,0.1,0.5,0.4,0.6,0.6c0.1,0.3,0.1,0.6,0,0.9l-1.1,2.5C16.1,5.8,15.7,6,15.2,6z"/>
<linearGradient id="SVGID_2_" gradientUnits="userSpaceOnUse" x1="29.545" y1="1.6438" x2="29.545" y2="54.4433">
	<stop  offset="0" style="stop-color:#0B508C"/>
	<stop  offset="1" style="stop-color:#24FFB6"/>
</linearGradient>
<path class="st1" d="M40.8,21.7L12,12.1c-0.4-0.1-0.8,0.1-0.9,0.4c0,0.1,0,0.1,0,0.2v1.6c0,0,0,0,0,0c-0.3-0.2-0.8,0-0.9,0.4
	c0,0,0,0,0,0L9,17.2c-0.2,0.3,0,0.8,0.4,0.9c0.3,0.2,0.8,0,0.9-0.4c0,0,0,0,0,0l0.8-1.8v21.8L2.7,35L3,34.2c0.2-0.3,0-0.8-0.4-0.9
	c-0.3-0.2-0.8,0-0.9,0.4l-0.7,1.5c0,0,0,0,0,0c0,0.1,0,0.2-0.1,0.2c0,0,0,0,0,0l0,0v14c0,0.3,0.2,0.6,0.5,0.7L15,54.4
	c0.1,0,0.1,0,0.2,0l0,0h0l0,0c0,0,0,0,0,0l2.8-0.2c0.4,0,0.7-0.4,0.6-0.7c0-0.4-0.4-0.7-0.7-0.6l-2,0.1v-8.3L37,51.5l-1.1,0.1
	c-0.4,0-0.7,0.4-0.6,0.7c0,0.4,0.3,0.6,0.7,0.6c0,0,0,0,0,0l2.8-0.2c0.3,0,0.5-0.2,0.6-0.5l1.1,0.3c0.4,0.1,0.8-0.1,0.9-0.4
	c0-0.1,0-0.1,0-0.2V22.4C41.3,22.1,41.1,21.8,40.8,21.7z M14.5,52.8L2.4,48.9V36.4l12.1,4V52.8z M15.9,43.3v-3l2-1.4
	c0.3-0.2,0.4-0.6,0.2-1s-0.6-0.4-1-0.2l0,0l-2,1.4l-2.7-0.9V13.7l26.6,8.9l-1.5,1c-0.3,0.2-0.4,0.6-0.2,1c0.2,0.3,0.6,0.4,1,0.2
	l1.6-1.1V51L15.9,43.3z M14.9,5.5c-0.3-0.2-0.5-0.6-0.4-0.9c0,0,0,0,0,0l1.1-2.5c0.2-0.3,0.6-0.5,0.9-0.4C17,1.9,17.1,2.3,17,2.6
	l0,0l-1.1,2.5C15.7,5.5,15.3,5.7,14.9,5.5C14.9,5.5,14.9,5.5,14.9,5.5z M3.8,30.8c-0.3-0.2-0.5-0.6-0.4-0.9l1.1-2.5
	C4.7,27,5.1,26.8,5.4,27c0.3,0.2,0.5,0.6,0.4,0.9c0,0,0,0,0,0l-1.1,2.5C4.5,30.8,4.1,30.9,3.8,30.8C3.8,30.8,3.8,30.8,3.8,30.8
	L3.8,30.8z M12.1,11.8c-0.3-0.2-0.5-0.6-0.4-0.9l1.1-2.5C13.1,8,13.5,7.9,13.8,8c0.3,0.2,0.5,0.6,0.4,0.9l-1.1,2.5
	C12.9,11.8,12.5,12,12.1,11.8C12.1,11.8,12.1,11.8,12.1,11.8z M6.6,24.5c-0.3-0.2-0.5-0.6-0.4-0.9L7.3,21c0.2-0.3,0.6-0.5,0.9-0.4
	c0.3,0.2,0.5,0.6,0.4,0.9c0,0,0,0,0,0l-1.1,2.5C7.3,24.5,6.9,24.6,6.6,24.5C6.6,24.5,6.6,24.5,6.6,24.5L6.6,24.5z M57.7,11.4
	L55.4,13c-0.3,0.2-0.7,0.1-1-0.2c-0.2-0.3-0.1-0.7,0.2-1l2.3-1.6c0.3-0.2,0.7-0.1,1,0.2C58,10.7,58,11.2,57.7,11.4z M49.3,17
	c-0.4,0-0.7-0.3-0.7-0.7c0-0.2,0.1-0.4,0.3-0.6l2.3-1.6c0.3-0.2,0.7-0.1,1,0.2c0.2,0.3,0.1,0.7-0.2,1l-2.3,1.6
	C49.6,17,49.4,17,49.3,17L49.3,17z M46.5,18.3c0.2,0.3,0.1,0.7-0.2,1c0,0,0,0,0,0L44,20.8c-0.3,0.2-0.7,0.1-1-0.2
	c-0.2-0.3-0.1-0.7,0.2-1l2.3-1.6C45.8,17.9,46.2,18,46.5,18.3L46.5,18.3z M29.4,30.1c0.2,0.3,0.1,0.7-0.2,1c0,0,0,0,0,0L27,32.6
	c-0.3,0.2-0.7,0.1-1-0.2c-0.2-0.3-0.1-0.7,0.2-1l2.3-1.6C28.8,29.7,29.2,29.8,29.4,30.1C29.4,30.1,29.4,30.1,29.4,30.1z M35.1,26.2
	c0.2,0.3,0.1,0.7-0.2,1l-2.3,1.6c-0.3,0.2-0.7,0.1-1-0.2c-0.2-0.3-0.1-0.7,0.2-1l2.3-1.6C34.4,25.8,34.9,25.8,35.1,26.2
	C35.1,26.2,35.1,26.2,35.1,26.2z M23.7,34c0.2,0.3,0.1,0.7-0.2,1l-2.3,1.6c-0.3,0.2-0.7,0.1-1-0.2c-0.2-0.3-0.1-0.7,0.2-1l2.3-1.6
	C23.1,33.6,23.5,33.7,23.7,34z M25.5,53c0,0.4-0.3,0.7-0.6,0.7l-2.8,0.2c0,0,0,0,0,0c-0.4,0-0.7-0.3-0.7-0.7c0-0.4,0.3-0.7,0.6-0.7
	l2.8-0.2C25.2,52.3,25.5,52.6,25.5,53C25.5,53,25.5,53,25.5,53L25.5,53z M46.2,51.5c0,0.4-0.3,0.7-0.6,0.7l-2.8,0.2c0,0,0,0,0,0
	c-0.4,0-0.7-0.3-0.7-0.7c0-0.4,0.3-0.7,0.6-0.7l2.8-0.2C45.9,50.9,46.2,51.2,46.2,51.5L46.2,51.5z M53.1,51c0,0.4-0.3,0.7-0.6,0.7
	L49.7,52c0,0,0,0,0,0c-0.4,0-0.7-0.3-0.7-0.7c0-0.4,0.3-0.7,0.6-0.7l2.8-0.2C52.8,50.4,53.1,50.7,53.1,51C53.1,51,53.1,51,53.1,51z
	 M58.1,50.7c0,0.4-0.3,0.7-0.6,0.7l-0.8,0.1c0,0,0,0,0,0c-0.4,0-0.7-0.3-0.7-0.7c0-0.4,0.3-0.7,0.6-0.7l0.8-0.1
	C57.7,50,58,50.3,58.1,50.7L58.1,50.7z M32.4,52.5c0,0.4-0.3,0.7-0.6,0.7L29,53.5c0,0,0,0,0,0c-0.4,0-0.7-0.3-0.7-0.7
	c0-0.4,0.3-0.7,0.6-0.7l2.8-0.2C32.1,51.9,32.4,52.1,32.4,52.5L32.4,52.5z"/>
</svg>
