<?xml version="1.0" encoding="utf-8"?>
<!-- Generator: Adobe Illustrator 24.1.0, SVG Export Plug-In . SVG Version: 6.00 Build 0)  -->
<svg version="1.1" id="https:_www.flaticon.com_free-icon_layers_149298"
	 xmlns="http://www.w3.org/2000/svg" xmlns:xlink="http://www.w3.org/1999/xlink" x="0px" y="0px" width="60px" height="60px"
	 viewBox="0 0 60 60" style="enable-background:new 0 0 60 60;" xml:space="preserve">
<style type="text/css">
	.st0{fill:url(#SVGID_1_);}
</style>
<g>
	<linearGradient id="SVGID_1_" gradientUnits="userSpaceOnUse" x1="30.0005" y1="2.5424" x2="30.0005" y2="57.4575">
		<stop  offset="0" style="stop-color:#0B508C"/>
		<stop  offset="1" style="stop-color:#24FFB6"/>
	</linearGradient>
	<path class="st0" d="M30,57.5c-3.9,0-7.1-2.8-7.7-6.6h-9.6c-0.5,1.9-2,3.3-3.9,3.6c-0.3,0-0.5,0.1-0.8,0.1c-2.4,0-4.4-1.7-4.8-4
		c-0.4-2.6,1.3-5.2,4-5.6c0.3,0,0.5-0.1,0.8-0.1c2.2,0,4.2,1.5,4.7,3.7h9.6c0.5-3.3,3.2-6,6.5-6.5v-3.6h-5.4c-0.3,0-0.6-0.1-0.8-0.3
		c-0.2-0.2-0.3-0.5-0.3-0.8V24c0-0.7,0.5-1.2,1.2-1.2h5.4v-6.4h-5.3c-0.2,0-0.4-0.1-0.6-0.2c-0.6-0.3-0.8-1.1-0.4-1.6l6.6-11.5
		c0.1-0.2,0.2-0.3,0.4-0.4c0.2-0.1,0.4-0.2,0.7-0.2c0.4,0,0.8,0.2,1,0.5l6.6,11.5c0.1,0.2,0.2,0.4,0.2,0.6c0,0.7-0.5,1.2-1.2,1.2
		h-5.6v6.4h5.4c0.7,0,1.2,0.5,1.2,1.2v13.2c0,0.7-0.5,1.2-1.2,1.2h-5.4V42c3.3,0.5,6,3.2,6.5,6.5h9.6c0.5-2.1,2.5-3.7,4.7-3.7
		c2.4,0,4.4,1.7,4.8,4c0.2,1.3-0.1,2.6-0.8,3.6c-0.8,1.1-1.9,1.8-3.1,2c-0.3,0-0.5,0.1-0.8,0.1c-2.2,0-4.2-1.5-4.7-3.7h-9.6
		c-0.5,3.5-3.4,6.2-6.9,6.6C30.5,57.4,30.3,57.5,30,57.5z M30,44.3c-3,0-5.4,2.4-5.4,5.4s2.4,5.4,5.4,5.4c3,0,5.4-2.4,5.4-5.4
		C35.4,46.7,33,44.3,30,44.3z M52,47.2c-1.4,0-2.5,1.1-2.5,2.5s1.1,2.5,2.5,2.5c1.4,0,2.5-1.1,2.5-2.5C54.5,48.3,53.4,47.2,52,47.2z
		 M8,47.2c-1.4,0-2.5,1.1-2.5,2.5s1.1,2.5,2.5,2.5c1.4,0,2.5-1.1,2.5-2.5C10.5,48.3,9.4,47.2,8,47.2z M35.4,36V25.2H24.6V36H35.4z
		 M34.7,14l-4.6-7.9L25.6,14H34.7z"/>
</g>
</svg>
