<svg xmlns="http://www.w3.org/2000/svg" width="224.88" viewBox="0 0 224.88 225" height="225" version="1.0"><defs><clipPath id="a"><path d="M 0 0.0585938 L 224.761719 0.0585938 L 224.761719 224.9375 L 0 224.9375 Z M 0 0.0585938"/></clipPath><clipPath id="b"><path d="M 3.945312 4.003906 L 220.578125 4.003906 L 220.578125 220.636719 L 3.945312 220.636719 Z M 3.945312 4.003906"/></clipPath></defs><g clip-path="url(#a)" fill="#FFF"><path d="M 0 0.0585938 L 224.878906 0.0585938 L 224.878906 224.941406 L 0 224.941406 Z M 0 0.0585938"/><path d="M 0 0.0585938 L 224.878906 0.0585938 L 224.878906 224.941406 L 0 224.941406 Z M 0 0.0585938"/></g><path fill="#0C5A8C" d="M 182.144531 192.683594 C 176.355469 192.683594 171.660156 187.988281 171.660156 182.203125 C 171.660156 176.414062 176.355469 171.71875 182.144531 171.71875 C 187.929688 171.71875 192.625 176.414062 192.625 182.203125 C 192.625 187.988281 187.929688 192.683594 182.144531 192.683594 Z M 182.144531 164.730469 C 172.507812 164.730469 164.671875 172.566406 164.671875 182.203125 C 164.671875 191.839844 172.507812 199.671875 182.144531 199.671875 C 191.777344 199.671875 199.613281 191.839844 199.613281 182.203125 C 199.613281 172.566406 191.777344 164.730469 182.144531 164.730469"/><path fill="#0C5A8C" d="M 98.285156 122.804688 L 105.273438 122.804688 L 105.273438 115.816406 L 98.285156 115.816406 L 98.285156 122.804688"/><path fill="#0C5A8C" d="M 119.25 115.816406 L 112.261719 115.816406 L 112.261719 122.804688 L 119.25 122.804688 L 119.25 115.816406"/><path fill="#0C5A8C" d="M 84.308594 122.804688 L 91.296875 122.804688 L 91.296875 115.816406 L 84.308594 115.816406 L 84.308594 122.804688"/><path fill="#0C5A8C" d="M 101.777344 45.933594 L 73.824219 45.933594 L 73.824219 24.96875 L 101.777344 24.96875 Z M 108.765625 17.980469 L 66.835938 17.980469 L 66.835938 52.921875 L 108.765625 52.921875 L 108.765625 17.980469"/><path fill="#0C5A8C" d="M 171.660156 17.980469 L 115.753906 17.980469 L 115.753906 24.96875 L 171.660156 24.96875 L 171.660156 17.980469"/><path fill="#0C5A8C" d="M 171.660156 31.957031 L 115.753906 31.957031 L 115.753906 38.945312 L 171.660156 38.945312 L 171.660156 31.957031"/><path fill="#0C5A8C" d="M 165.21875 52.921875 L 171.660156 52.921875 L 171.660156 45.933594 L 165.21875 45.933594 L 165.21875 52.921875"/><path fill="#0C5A8C" d="M 157.765625 45.933594 L 115.753906 45.933594 L 115.753906 52.921875 L 157.765625 52.921875 L 157.765625 45.933594"/><g clip-path="url(#b)"><path fill="#0C5A8C" d="M 213.589844 112.320312 C 213.589844 125.941406 210.941406 139.074219 205.753906 151.453125 L 203.175781 148.886719 L 196.828125 153.117188 C 195.382812 152.378906 193.867188 151.765625 192.324219 151.246094 L 190.835938 143.765625 L 185.636719 143.765625 L 185.636719 98.34375 L 212.550781 98.34375 C 213.195312 102.957031 213.589844 107.625 213.589844 112.320312 Z M 213.589844 179.242188 L 213.589844 185.164062 L 207.488281 186.378906 L 206.941406 188.523438 C 206.34375 190.898438 205.398438 193.175781 204.144531 195.277344 L 203.011719 197.160156 L 206.476562 202.347656 L 202.289062 206.523438 L 197.101562 203.085938 L 195.21875 204.203125 C 193.117188 205.460938 190.835938 206.402344 188.449219 207.003906 L 186.320312 207.546875 L 185.105469 213.648438 L 179.179688 213.648438 L 177.964844 207.546875 L 175.835938 207.003906 C 173.449219 206.402344 171.167969 205.460938 169.066406 204.203125 L 167.183594 203.085938 L 161.996094 206.523438 L 157.808594 202.347656 L 161.273438 197.160156 L 160.140625 195.277344 C 158.886719 193.175781 157.941406 190.898438 157.34375 188.523438 L 156.796875 186.378906 L 150.695312 185.164062 L 150.695312 179.242188 L 156.796875 178.027344 L 157.34375 175.882812 C 157.941406 173.507812 158.886719 171.230469 160.140625 169.128906 L 161.273438 167.242188 L 157.808594 162.058594 L 161.996094 157.867188 L 167.183594 161.320312 L 169.066406 160.199219 C 171.167969 158.945312 173.449219 158.003906 175.835938 157.402344 L 177.964844 156.855469 L 179.179688 150.753906 L 185.105469 150.753906 L 186.320312 156.855469 L 188.449219 157.402344 C 190.835938 158.003906 193.117188 158.945312 195.21875 160.199219 L 197.101562 161.320312 L 202.289062 157.867188 L 206.476562 162.058594 L 203.011719 167.242188 L 204.144531 169.128906 C 205.398438 171.230469 206.34375 173.507812 206.941406 175.882812 L 207.488281 178.027344 Z M 136.71875 210.660156 L 136.71875 185.695312 L 143.707031 185.695312 L 143.707031 190.898438 L 151.1875 192.382812 C 151.691406 193.925781 152.320312 195.441406 153.058594 196.890625 L 148.824219 203.234375 L 151.390625 205.816406 C 146.613281 207.820312 141.714844 209.417969 136.71875 210.660156 Z M 21.835938 211.78125 C 20.648438 212.96875 18.996094 213.648438 17.320312 213.648438 C 13.796875 213.648438 10.929688 210.785156 10.929688 207.261719 C 10.929688 205.554688 11.601562 203.945312 12.800781 202.742188 L 51.113281 164.433594 L 60.148438 173.46875 Z M 10.929688 112.320312 C 10.929688 79.507812 26.492188 49.277344 52.859375 30.222656 L 52.859375 100.652344 C 50.636719 106.453125 49.367188 112.730469 49.367188 119.308594 C 49.367188 129.820312 52.507812 139.589844 57.855469 147.808594 L 51.113281 154.550781 L 44.847656 148.285156 L 39.90625 153.226562 L 46.171875 159.492188 L 31.839844 173.820312 C 18.382812 156.230469 10.929688 134.554688 10.929688 112.320312 Z M 178.648438 10.992188 L 178.648438 56.414062 L 171.660156 56.414062 L 171.660156 91.355469 L 164.671875 91.355469 L 164.671875 70.390625 L 143.707031 70.390625 L 143.707031 88 C 134.140625 75.222656 118.933594 66.898438 101.777344 66.898438 C 84.621094 66.898438 69.417969 75.222656 59.847656 88 L 59.847656 10.992188 Z M 185.636719 63.402344 L 185.636719 91.355469 L 178.648438 91.355469 L 178.648438 63.402344 Z M 71.558594 162.058594 L 65.089844 168.527344 L 56.054688 159.492188 L 62.101562 153.445312 C 64.886719 156.691406 68.066406 159.585938 71.558594 162.058594 Z M 157.683594 91.355469 L 150.695312 91.355469 L 150.695312 77.378906 L 157.683594 77.378906 Z M 101.777344 73.886719 C 126.824219 73.886719 147.203125 94.261719 147.203125 119.308594 C 147.203125 144.355469 126.824219 164.730469 101.777344 164.730469 C 76.734375 164.730469 56.355469 144.355469 56.355469 119.308594 C 56.355469 94.261719 76.734375 73.886719 101.777344 73.886719 Z M 115.753906 197.625 L 127.683594 185.695312 L 129.730469 185.695312 L 129.730469 212.148438 C 125.144531 212.941406 120.476562 213.390625 115.753906 213.554688 Z M 94.789062 199.671875 L 108.765625 199.671875 L 108.765625 213.5 C 104.070312 213.335938 99.390625 212.925781 94.789062 212.121094 Z M 66.835938 202.796875 C 64.871094 201.800781 62.921875 200.792969 61.023438 199.671875 L 66.835938 199.671875 Z M 73.824219 199.671875 L 87.800781 199.671875 L 87.800781 210.59375 C 83.023438 209.40625 78.371094 207.835938 73.824219 205.964844 Z M 173.449219 143.765625 L 171.960938 151.246094 C 170.417969 151.765625 168.902344 152.378906 167.457031 153.117188 L 161.109375 148.886719 L 148.824219 161.167969 L 153.058594 167.515625 C 152.320312 168.964844 151.691406 170.476562 151.1875 172.019531 L 143.707031 173.523438 L 143.707031 178.707031 L 124.789062 178.707031 L 110.8125 192.683594 L 50.8125 192.683594 L 65.089844 178.410156 L 71.355469 184.671875 L 76.296875 179.730469 L 70.03125 173.46875 L 77.6875 165.808594 C 84.910156 169.5625 93.097656 171.71875 101.777344 171.71875 C 130.6875 171.71875 154.191406 148.203125 154.191406 119.308594 C 154.191406 111.855469 152.59375 104.773438 149.78125 98.34375 L 178.648438 98.34375 L 178.648438 143.765625 Z M 199.613281 61 L 199.613281 91.355469 L 192.625 91.355469 L 192.625 56.414062 L 185.636719 56.414062 L 185.636719 42.4375 C 191 48.0625 195.667969 54.285156 199.613281 61 Z M 206.601562 35.449219 L 213.589844 35.449219 L 213.589844 91.355469 L 206.601562 91.355469 Z M 220.578125 28.460938 L 199.613281 28.460938 L 199.613281 48.390625 C 195.476562 42.738281 190.808594 37.484375 185.636719 32.71875 L 185.636719 4.003906 L 52.859375 4.003906 L 52.859375 21.789062 C 22.21875 41.90625 3.945312 75.589844 3.945312 112.320312 C 3.945312 136.410156 12.0625 159.914062 26.804688 178.84375 L 7.859375 197.804688 C 5.335938 200.328125 3.945312 203.6875 3.945312 207.261719 C 3.945312 214.632812 9.949219 220.636719 17.320312 220.636719 C 20.894531 220.636719 24.253906 219.246094 26.777344 216.71875 L 45.734375 197.777344 C 64.667969 212.515625 88.183594 220.636719 112.261719 220.636719 C 127.777344 220.636719 142.699219 217.402344 156.675781 211.097656 L 161.109375 215.519531 L 167.457031 211.289062 C 168.902344 212.023438 170.417969 212.640625 171.960938 213.15625 L 173.449219 220.636719 L 190.835938 220.636719 L 192.324219 213.15625 C 193.867188 212.640625 195.382812 212.023438 196.828125 211.289062 L 203.175781 215.519531 L 215.460938 203.234375 L 211.226562 196.890625 C 211.964844 195.441406 212.59375 193.925781 213.097656 192.382812 L 220.578125 190.898438 L 220.578125 173.523438 L 213.097656 172.019531 C 212.59375 170.476562 211.964844 168.964844 211.226562 167.515625 L 215.460938 161.167969 L 211.039062 156.734375 C 217.34375 142.757812 220.578125 127.824219 220.578125 112.320312 C 220.578125 107.640625 220.183594 102.972656 219.59375 98.34375 L 220.578125 98.34375 L 220.578125 28.460938"/></g><path fill="#0C5A8C" d="M 133.226562 119.308594 C 133.226562 120.304688 133.171875 121.289062 133.074219 122.257812 C 133.035156 122.652344 132.964844 123.046875 132.925781 123.445312 C 132.84375 124.003906 132.761719 124.5625 132.664062 125.109375 C 132.582031 125.585938 132.460938 126.050781 132.367188 126.515625 C 132.242188 126.980469 132.132812 127.445312 131.996094 127.90625 C 131.859375 128.386719 131.722656 128.863281 131.558594 129.328125 C 131.410156 129.777344 131.246094 130.226562 131.070312 130.664062 C 130.90625 131.101562 130.726562 131.550781 130.535156 131.976562 C 130.304688 132.492188 130.058594 132.984375 129.8125 133.476562 C 129.636719 133.816406 129.472656 134.160156 129.292969 134.5 C 128.886719 135.25 128.433594 135.972656 127.957031 136.683594 C 127.914062 136.753906 127.875 136.832031 127.832031 136.902344 C 125.582031 140.21875 122.703125 143.097656 119.386719 145.351562 C 119.277344 145.433594 119.152344 145.488281 119.042969 145.570312 C 118.363281 146.007812 117.679688 146.429688 116.96875 146.824219 C 116.628906 147.015625 116.273438 147.179688 115.917969 147.355469 C 115.441406 147.601562 114.949219 147.847656 114.457031 148.066406 C 114.019531 148.257812 113.570312 148.433594 113.132812 148.597656 C 112.683594 148.777344 112.246094 148.941406 111.796875 149.089844 C 111.332031 149.253906 110.855469 149.390625 110.378906 149.527344 C 109.914062 149.664062 109.460938 149.773438 109 149.882812 C 108.519531 149.992188 108.058594 150.113281 107.578125 150.195312 C 107.03125 150.304688 106.472656 150.375 105.914062 150.457031 C 105.519531 150.511719 105.121094 150.566406 104.726562 150.605469 C 103.757812 150.699219 102.773438 150.753906 101.777344 150.753906 C 84.429688 150.753906 70.332031 136.644531 70.332031 119.308594 C 70.332031 118.3125 70.386719 117.328125 70.480469 116.359375 C 70.523438 115.964844 70.589844 115.570312 70.632812 115.1875 C 70.714844 114.613281 70.796875 114.054688 70.890625 113.507812 C 70.972656 113.03125 71.09375 112.566406 71.191406 112.101562 C 71.3125 111.636719 71.421875 111.175781 71.546875 110.710938 C 71.695312 110.230469 71.832031 109.753906 71.996094 109.289062 C 72.148438 108.839844 72.324219 108.390625 72.488281 107.953125 C 72.652344 107.515625 72.828125 107.066406 73.019531 106.644531 C 73.253906 106.125 73.496094 105.632812 73.742188 105.140625 C 73.921875 104.800781 74.085938 104.457031 74.261719 104.117188 C 74.671875 103.378906 75.109375 102.644531 75.585938 101.949219 C 75.640625 101.867188 75.683594 101.785156 75.722656 101.714844 C 77.976562 98.398438 80.855469 95.519531 84.171875 93.265625 C 84.28125 93.199219 84.402344 93.128906 84.5 93.0625 C 85.179688 92.613281 85.878906 92.1875 86.585938 91.792969 C 86.929688 91.601562 87.28125 91.4375 87.625 91.261719 C 88.117188 91.015625 88.605469 90.769531 89.097656 90.550781 C 89.535156 90.359375 89.984375 90.183594 90.421875 90.019531 C 90.871094 89.839844 91.308594 89.675781 91.761719 89.527344 C 92.222656 89.363281 92.703125 89.226562 93.179688 89.089844 C 93.644531 88.953125 94.109375 88.84375 94.570312 88.722656 C 95.035156 88.613281 95.5 88.503906 95.976562 88.421875 C 96.523438 88.3125 97.082031 88.242188 97.644531 88.164062 C 98.039062 88.109375 98.433594 88.054688 98.832031 88.011719 C 99.800781 87.917969 100.78125 87.863281 101.777344 87.863281 C 119.125 87.863281 133.226562 101.976562 133.226562 119.308594 Z M 66.632812 103.804688 C 66.402344 104.351562 66.183594 104.894531 65.976562 105.457031 C 65.773438 105.972656 65.566406 106.507812 65.390625 107.050781 C 65.1875 107.625 65.007812 108.226562 64.832031 108.8125 C 64.679688 109.371094 64.542969 109.933594 64.40625 110.492188 C 64.269531 111.066406 64.132812 111.636719 64.027344 112.210938 C 63.902344 112.894531 63.808594 113.578125 63.710938 114.246094 C 63.65625 114.738281 63.574219 115.214844 63.519531 115.707031 C 63.410156 116.90625 63.34375 118.109375 63.34375 119.308594 C 63.34375 140.503906 80.582031 157.742188 101.777344 157.742188 C 102.980469 157.742188 104.195312 157.675781 105.382812 157.566406 C 105.871094 157.511719 106.335938 157.429688 106.828125 157.375 C 107.511719 157.28125 108.191406 157.183594 108.875 157.0625 C 109.449219 156.953125 110.023438 156.816406 110.59375 156.691406 C 111.15625 156.542969 111.726562 156.40625 112.289062 156.242188 C 112.875 156.078125 113.449219 155.902344 114.019531 155.710938 C 114.582031 155.519531 115.125 155.3125 115.671875 155.109375 C 116.203125 154.890625 116.738281 154.6875 117.257812 154.453125 C 117.882812 154.179688 118.5 153.882812 119.125 153.566406 C 119.523438 153.363281 119.945312 153.171875 120.339844 152.941406 C 121.269531 152.433594 122.167969 151.875 123.058594 151.289062 C 123.125 151.246094 123.207031 151.207031 123.273438 151.152344 C 124.246094 150.496094 125.1875 149.8125 126.101562 149.0625 L 126.085938 149.050781 C 128.078125 147.425781 129.894531 145.609375 131.519531 143.617188 L 131.53125 143.632812 C 132.269531 142.730469 132.953125 141.789062 133.605469 140.820312 C 133.703125 140.683594 133.785156 140.53125 133.878906 140.394531 C 134.414062 139.578125 134.929688 138.746094 135.394531 137.886719 C 135.640625 137.460938 135.847656 137.011719 136.0625 136.574219 C 136.363281 135.988281 136.652344 135.402344 136.925781 134.8125 C 137.15625 134.269531 137.375 133.722656 137.578125 133.164062 C 137.785156 132.644531 137.988281 132.113281 138.167969 131.566406 C 138.371094 130.992188 138.546875 130.390625 138.726562 129.804688 C 138.875 129.246094 139.011719 128.683594 139.148438 128.125 C 139.285156 127.550781 139.421875 126.980469 139.53125 126.40625 C 139.652344 125.722656 139.75 125.042969 139.84375 124.371094 C 139.898438 123.882812 139.980469 123.402344 140.035156 122.910156 C 140.144531 121.710938 140.214844 120.511719 140.214844 119.308594 C 140.214844 98.113281 122.976562 80.875 101.777344 80.875 C 100.578125 80.875 99.363281 80.941406 98.175781 81.050781 C 97.683594 81.105469 97.21875 81.1875 96.726562 81.242188 C 96.046875 81.335938 95.363281 81.433594 94.679688 81.554688 C 94.109375 81.664062 93.535156 81.800781 92.960938 81.925781 C 92.402344 82.074219 91.828125 82.210938 91.269531 82.375 C 90.683594 82.539062 90.109375 82.714844 89.535156 82.90625 C 88.976562 83.097656 88.429688 83.304688 87.882812 83.507812 C 87.351562 83.726562 86.820312 83.929688 86.300781 84.164062 C 85.671875 84.4375 85.058594 84.734375 84.429688 85.050781 C 84.035156 85.253906 83.613281 85.445312 83.214844 85.679688 C 82.289062 86.183594 81.386719 86.742188 80.5 87.328125 C 80.429688 87.371094 80.347656 87.410156 80.28125 87.464844 C 79.3125 88.121094 78.371094 88.804688 77.457031 89.554688 L 77.46875 89.566406 C 75.476562 91.191406 73.660156 93.007812 72.039062 95 L 72.023438 94.988281 C 71.285156 95.886719 70.605469 96.828125 69.949219 97.796875 C 69.855469 97.933594 69.773438 98.085938 69.675781 98.222656 C 69.144531 99.039062 68.625 99.871094 68.160156 100.734375 C 67.914062 101.15625 67.710938 101.605469 67.492188 102.042969 C 67.191406 102.628906 66.90625 103.214844 66.632812 103.804688"/></svg>