<svg xmlns="http://www.w3.org/2000/svg" width="224.88" viewBox="0 0 224.88 225" height="225" version="1.0"><defs><clipPath id="a"><path d="M 0 0.0585938 L 224.761719 0.0585938 L 224.761719 224.9375 L 0 224.9375 Z M 0 0.0585938"/></clipPath><clipPath id="b"><path d="M 15.824219 3.484375 L 209.222656 3.484375 L 209.222656 221.617188 L 15.824219 221.617188 Z M 15.824219 3.484375"/></clipPath></defs><g clip-path="url(#a)" fill="#FFF"><path d="M 0 0.0585938 L 224.878906 0.0585938 L 224.878906 224.941406 L 0 224.941406 Z M 0 0.0585938"/><path d="M 0 0.0585938 L 224.878906 0.0585938 L 224.878906 224.941406 L 0 224.941406 Z M 0 0.0585938"/></g><g clip-path="url(#b)"><path fill="#0C5A8C" d="M 92.492188 85.144531 C 92.492188 83.261719 94.015625 81.738281 95.898438 81.738281 L 149.769531 81.738281 C 151.652344 81.738281 153.179688 83.261719 153.179688 85.144531 C 153.179688 87.023438 151.652344 88.546875 149.769531 88.546875 L 95.898438 88.546875 C 94.015625 88.546875 92.492188 87.023438 92.492188 85.144531 Z M 95.898438 69.523438 L 149.769531 69.523438 C 151.652344 69.523438 153.179688 68 153.179688 66.117188 C 153.179688 64.238281 151.652344 62.710938 149.769531 62.710938 L 95.898438 62.710938 C 94.015625 62.710938 92.492188 64.238281 92.492188 66.117188 C 92.492188 68 94.015625 69.523438 95.898438 69.523438 Z M 54.804688 73.042969 C 53.476562 71.714844 51.316406 71.714844 49.988281 73.042969 C 48.65625 74.375 48.65625 76.53125 49.988281 77.859375 L 57.742188 85.613281 C 58.40625 86.273438 59.277344 86.609375 60.152344 86.609375 C 60.96875 86.609375 61.789062 86.316406 62.441406 85.726562 L 81.273438 68.640625 C 82.667969 67.375 82.773438 65.222656 81.507812 63.828125 C 80.242188 62.4375 78.089844 62.332031 76.695312 63.597656 L 60.265625 78.5 Z M 101.648438 15.914062 C 99.296875 15.914062 97.386719 17.816406 97.386719 20.167969 C 97.386719 22.519531 99.296875 24.425781 101.648438 24.425781 C 104 24.425781 105.90625 22.519531 105.90625 20.167969 C 105.90625 17.816406 104 15.914062 101.648438 15.914062 Z M 76.695312 95.949219 L 60.265625 110.855469 L 54.804688 105.398438 C 53.476562 104.066406 51.316406 104.066406 49.988281 105.398438 C 48.65625 106.726562 48.65625 108.882812 49.988281 110.214844 L 57.742188 117.964844 C 58.40625 118.628906 59.277344 118.960938 60.152344 118.960938 C 60.96875 118.960938 61.789062 118.667969 62.441406 118.078125 L 81.273438 100.992188 C 82.667969 99.730469 82.773438 97.574219 81.507812 96.183594 C 80.242188 94.789062 78.085938 94.6875 76.695312 95.949219 Z M 76.695312 128.304688 L 60.265625 143.210938 L 54.804688 137.753906 C 53.476562 136.421875 51.316406 136.421875 49.988281 137.753906 C 48.65625 139.082031 48.65625 141.238281 49.988281 142.566406 L 57.742188 150.320312 C 58.40625 150.984375 59.277344 151.316406 60.152344 151.316406 C 60.96875 151.316406 61.789062 151.023438 62.441406 150.433594 L 81.273438 133.347656 C 82.667969 132.085938 82.773438 129.929688 81.507812 128.539062 C 80.242188 127.144531 78.085938 127.039062 76.695312 128.304688 Z M 76.695312 160.660156 L 60.265625 175.5625 L 54.804688 170.105469 C 53.476562 168.777344 51.316406 168.777344 49.988281 170.105469 C 48.65625 171.4375 48.65625 173.59375 49.988281 174.921875 L 57.742188 182.671875 C 58.40625 183.335938 59.277344 183.671875 60.152344 183.671875 C 60.96875 183.671875 61.789062 183.378906 62.441406 182.789062 L 81.273438 165.703125 C 82.667969 164.4375 82.773438 162.285156 81.507812 160.890625 C 80.242188 159.5 78.085938 159.394531 76.695312 160.660156 Z M 95.898438 107.574219 L 149.769531 107.574219 C 151.652344 107.574219 153.179688 106.046875 153.179688 104.167969 C 153.179688 102.285156 151.652344 100.761719 149.769531 100.761719 L 95.898438 100.761719 C 94.015625 100.761719 92.492188 102.285156 92.492188 104.167969 C 92.492188 106.046875 94.015625 107.574219 95.898438 107.574219 Z M 209.246094 134 L 209.246094 195.6875 C 209.246094 199.027344 207.996094 202.042969 205.632812 204.40625 L 192.113281 217.921875 C 189.746094 220.285156 186.730469 221.535156 183.386719 221.535156 L 28.722656 221.535156 C 21.621094 221.535156 15.84375 215.757812 15.84375 208.660156 L 15.84375 34.472656 C 15.84375 27.375 21.621094 21.597656 28.722656 21.597656 L 61.777344 21.597656 L 61.777344 19.28125 C 61.777344 17.402344 63.304688 15.878906 65.183594 15.878906 L 83.507812 15.878906 C 86.410156 8.511719 93.527344 3.570312 101.648438 3.570312 C 109.769531 3.570312 116.882812 8.511719 119.785156 15.878906 L 138.109375 15.878906 C 139.992188 15.878906 141.515625 17.402344 141.515625 19.28125 L 141.515625 21.597656 L 174.574219 21.597656 C 181.671875 21.597656 187.449219 27.375 187.449219 34.472656 L 187.449219 114.222656 L 189.921875 114.222656 C 193.03125 114.222656 195.558594 116.75 195.558594 119.859375 L 195.558594 121.667969 L 196.910156 121.667969 C 203.710938 121.667969 209.246094 127.199219 209.246094 134 Z M 189.921875 139.035156 L 185.496094 139.035156 C 182.382812 139.035156 179.855469 136.503906 179.855469 133.394531 L 179.855469 128.480469 L 170.738281 128.480469 L 170.738281 133.394531 C 170.738281 136.503906 168.207031 139.035156 165.097656 139.035156 L 160.671875 139.035156 C 157.5625 139.035156 155.03125 136.503906 155.03125 133.394531 L 155.03125 128.480469 L 145.914062 128.480469 L 145.914062 133.394531 C 145.914062 136.503906 143.386719 139.035156 140.277344 139.035156 L 135.847656 139.035156 C 132.738281 139.035156 130.210938 136.503906 130.210938 133.394531 L 130.210938 128.480469 L 121.09375 128.480469 L 121.09375 133.394531 C 121.09375 136.503906 118.5625 139.035156 115.453125 139.035156 L 111.027344 139.035156 C 107.917969 139.035156 105.386719 136.503906 105.386719 133.394531 L 105.386719 128.480469 L 104.039062 128.480469 C 100.992188 128.480469 98.515625 130.957031 98.515625 134 L 98.515625 141.148438 L 202.433594 141.148438 L 202.433594 134 C 202.433594 130.957031 199.953125 128.480469 196.910156 128.480469 L 195.5625 128.480469 L 195.5625 133.394531 C 195.5625 136.503906 193.03125 139.035156 189.921875 139.035156 Z M 114.277344 132.222656 L 114.277344 121.035156 L 112.199219 121.035156 L 112.199219 132.222656 Z M 139.101562 132.222656 L 139.101562 121.035156 L 137.023438 121.035156 L 137.023438 132.222656 Z M 163.921875 132.222656 L 163.921875 121.035156 L 161.847656 121.035156 L 161.847656 132.222656 Z M 188.746094 121.035156 L 186.667969 121.035156 L 186.667969 132.222656 L 188.746094 132.222656 Z M 141.515625 28.410156 L 141.515625 34.769531 L 170.867188 34.769531 C 172.75 34.769531 174.273438 36.292969 174.273438 38.175781 L 174.273438 121.667969 L 179.855469 121.667969 L 179.855469 119.859375 C 179.855469 118.820312 180.144531 117.847656 180.636719 117.011719 L 180.636719 34.472656 C 180.636719 31.128906 177.917969 28.410156 174.574219 28.410156 Z M 68.589844 40.492188 L 134.703125 40.492188 L 134.703125 22.6875 L 117.296875 22.6875 C 115.722656 22.6875 114.355469 21.609375 113.984375 20.082031 C 112.609375 14.371094 107.535156 10.382812 101.648438 10.382812 C 95.761719 10.382812 90.6875 14.371094 89.308594 20.082031 C 88.9375 21.609375 87.570312 22.6875 85.996094 22.6875 L 68.589844 22.6875 Z M 65.183594 47.300781 C 63.304688 47.300781 61.777344 45.777344 61.777344 43.898438 L 61.777344 41.582031 L 35.832031 41.582031 L 35.832031 201.554688 L 91.699219 201.554688 L 91.699219 134 C 91.699219 127.199219 97.234375 121.667969 104.039062 121.667969 L 105.386719 121.667969 L 105.386719 119.859375 C 105.386719 116.75 107.917969 114.222656 111.027344 114.222656 L 115.453125 114.222656 C 118.5625 114.222656 121.09375 116.75 121.09375 119.859375 L 121.09375 121.667969 L 130.210938 121.667969 L 130.210938 119.859375 C 130.210938 116.75 132.738281 114.222656 135.847656 114.222656 L 140.277344 114.222656 C 143.386719 114.222656 145.914062 116.75 145.914062 119.859375 L 145.914062 121.667969 L 155.03125 121.667969 L 155.03125 119.859375 C 155.03125 116.75 157.5625 114.222656 160.671875 114.222656 L 165.097656 114.222656 C 165.941406 114.222656 166.742188 114.414062 167.460938 114.746094 L 167.460938 41.582031 L 141.515625 41.582031 L 141.515625 43.898438 C 141.515625 45.777344 139.992188 47.300781 138.109375 47.300781 Z M 28.722656 214.722656 L 93.011719 214.722656 C 92.175781 213.058594 91.699219 211.1875 91.699219 209.203125 L 91.699219 208.363281 L 32.425781 208.363281 C 30.542969 208.363281 29.019531 206.839844 29.019531 204.957031 L 29.019531 38.175781 C 29.019531 36.292969 30.542969 34.769531 32.425781 34.769531 L 61.777344 34.769531 L 61.777344 28.410156 L 28.722656 28.410156 C 25.378906 28.410156 22.660156 31.128906 22.660156 34.472656 L 22.660156 208.660156 C 22.65625 212.003906 25.378906 214.722656 28.722656 214.722656 Z M 183.386719 214.722656 C 183.488281 214.722656 183.582031 214.714844 183.679688 214.710938 L 183.679688 201.613281 C 183.679688 198.507812 186.210938 195.976562 189.320312 195.976562 L 202.421875 195.976562 C 202.425781 195.878906 202.433594 195.785156 202.433594 195.683594 L 202.433594 147.960938 L 98.515625 147.960938 L 98.515625 209.203125 C 98.515625 212.246094 100.992188 214.722656 104.039062 214.722656 Z M 197.613281 202.789062 L 190.492188 202.789062 L 190.492188 209.90625 Z M 192.332031 193.148438 L 178.996094 193.148438 L 178.996094 206.476562 C 178.996094 208.359375 177.472656 209.882812 175.589844 209.882812 L 108.613281 209.882812 C 106.734375 209.882812 105.207031 208.359375 105.207031 206.476562 L 105.207031 156.269531 C 105.207031 154.386719 106.734375 152.863281 108.613281 152.863281 L 192.332031 152.863281 C 194.214844 152.863281 195.738281 154.386719 195.738281 156.269531 L 195.738281 189.742188 C 195.738281 191.625 194.214844 193.148438 192.332031 193.148438 Z M 188.925781 159.675781 L 178.996094 159.675781 L 178.996094 169.597656 L 188.925781 169.597656 Z M 172.183594 176.410156 L 162.253906 176.410156 L 162.253906 186.335938 L 172.183594 186.335938 Z M 128.765625 186.335938 L 138.695312 186.335938 L 138.695312 176.410156 L 128.765625 176.410156 Z M 121.949219 176.410156 L 112.023438 176.410156 L 112.023438 186.335938 L 121.949219 186.335938 Z M 138.695312 159.675781 L 128.765625 159.675781 L 128.765625 169.597656 L 138.695312 169.597656 Z M 145.507812 169.601562 L 155.4375 169.601562 L 155.4375 159.675781 L 145.507812 159.675781 Z M 128.765625 193.148438 L 128.765625 203.074219 L 138.695312 203.074219 L 138.695312 193.148438 Z M 145.507812 203.074219 L 155.4375 203.074219 L 155.4375 193.148438 L 145.507812 193.148438 Z M 155.4375 186.335938 L 155.4375 176.410156 L 145.507812 176.410156 L 145.507812 186.335938 Z M 172.183594 169.601562 L 172.183594 159.675781 L 162.253906 159.675781 L 162.253906 169.601562 Z M 112.023438 159.675781 L 112.023438 169.597656 L 121.949219 169.597656 L 121.949219 159.675781 Z M 112.023438 203.074219 L 121.949219 203.074219 L 121.949219 193.148438 L 112.023438 193.148438 Z M 172.183594 203.074219 L 172.183594 193.148438 L 162.253906 193.148438 L 162.253906 203.074219 Z M 188.925781 186.335938 L 188.925781 176.410156 L 178.996094 176.410156 L 178.996094 186.335938 Z M 188.925781 186.335938"/></g></svg>