<svg xmlns="http://www.w3.org/2000/svg" width="224.88" viewBox="0 0 224.88 225" height="225" version="1.0"><defs><clipPath id="a"><path d="M 0 0.0585938 L 224.761719 0.0585938 L 224.761719 224.9375 L 0 224.9375 Z M 0 0.0585938"/></clipPath><clipPath id="b"><path d="M 7.273438 7.332031 L 217.910156 7.332031 L 217.910156 217.96875 L 7.273438 217.96875 Z M 7.273438 7.332031"/></clipPath></defs><g clip-path="url(#a)" fill="#FFF"><path d="M 0 0.0585938 L 224.878906 0.0585938 L 224.878906 1154.445312 L 0 1154.445312 Z M 0 0.0585938"/><path d="M 0 0.0585938 L 224.878906 0.0585938 L 224.878906 224.941406 L 0 224.941406 Z M 0 0.0585938"/><path d="M 0 0.0585938 L 224.878906 0.0585938 L 224.878906 224.941406 L 0 224.941406 Z M 0 0.0585938"/></g><path fill="#0C5A8C" d="M 48.160156 61.679688 C 40.664062 61.679688 34.570312 55.574219 34.570312 48.089844 C 34.570312 40.589844 40.664062 34.5 48.160156 34.5 C 55.660156 34.5 61.75 40.589844 61.75 48.089844 C 61.75 55.574219 55.660156 61.679688 48.160156 61.679688 Z M 48.160156 27.703125 C 36.921875 27.703125 27.777344 36.847656 27.777344 48.089844 C 27.777344 59.328125 36.921875 68.472656 48.160156 68.472656 C 59.402344 68.472656 68.546875 59.328125 68.546875 48.089844 C 68.546875 36.847656 59.402344 27.703125 48.160156 27.703125"/><path fill="#0C5A8C" d="M 199.929688 169.28125 L 195.125 164.476562 L 170.347656 189.253906 L 165.953125 184.859375 L 161.152344 189.664062 L 170.347656 198.859375 L 199.929688 169.28125"/><path fill="#0C5A8C" d="M 122.785156 51.367188 L 129.578125 51.367188 L 129.578125 44.570312 L 122.785156 44.570312 L 122.785156 51.367188"/><path fill="#0C5A8C" d="M 163.550781 51.367188 L 170.347656 51.367188 L 170.347656 44.570312 L 163.550781 44.570312 L 163.550781 51.367188"/><path fill="#0C5A8C" d="M 149.964844 51.367188 L 156.757812 51.367188 L 156.757812 44.570312 L 149.964844 44.570312 L 149.964844 51.367188"/><path fill="#0C5A8C" d="M 136.375 51.367188 L 143.167969 51.367188 L 143.167969 44.570312 L 136.375 44.570312 L 136.375 51.367188"/><g clip-path="url(#b)"><path fill="#0C5A8C" d="M 82.015625 105.722656 C 82.015625 103.851562 83.542969 102.328125 85.414062 102.328125 L 139.769531 102.328125 C 141.640625 102.328125 143.167969 103.851562 143.167969 105.722656 L 143.167969 119.3125 C 143.167969 121.183594 141.640625 122.710938 139.769531 122.710938 L 85.414062 122.710938 C 83.542969 122.710938 82.015625 121.183594 82.015625 119.3125 Z M 48.042969 173.671875 C 48.042969 171.800781 49.566406 170.273438 51.4375 170.273438 L 105.796875 170.273438 C 107.667969 170.273438 109.195312 171.800781 109.195312 173.671875 L 109.195312 187.261719 C 109.195312 189.132812 107.667969 190.660156 105.796875 190.660156 L 51.4375 190.660156 C 49.566406 190.660156 48.042969 189.132812 48.042969 187.261719 Z M 180.539062 149.890625 C 197.40625 149.890625 211.117188 163.597656 211.117188 180.464844 C 211.117188 197.320312 197.40625 211.042969 180.539062 211.042969 C 163.671875 211.042969 149.964844 197.320312 149.964844 180.464844 C 149.964844 163.597656 163.671875 149.890625 180.539062 149.890625 Z M 177.140625 54.765625 C 177.140625 56.636719 175.617188 58.160156 173.746094 58.160156 L 119.386719 58.160156 C 117.515625 58.160156 115.988281 56.636719 115.988281 54.765625 L 115.988281 41.175781 C 115.988281 39.304688 117.515625 37.777344 119.386719 37.777344 L 173.746094 37.777344 C 175.617188 37.777344 177.140625 39.304688 177.140625 41.175781 Z M 82.136719 52.28125 L 74.691406 54.324219 L 74.132812 56.105469 C 73.640625 57.683594 72.992188 59.25 72.195312 60.761719 L 71.320312 62.421875 L 75.15625 69.136719 L 69.207031 75.082031 L 62.492188 71.246094 L 60.835938 72.121094 C 59.320312 72.917969 57.757812 73.570312 56.191406 74.058594 L 54.398438 74.605469 L 52.367188 82.0625 L 43.953125 82.0625 L 41.921875 74.605469 L 40.144531 74.058594 C 38.566406 73.570312 37 72.917969 35.488281 72.121094 L 33.828125 71.246094 L 27.101562 75.082031 L 21.167969 69.136719 L 25.003906 62.421875 L 24.128906 60.761719 C 23.332031 59.25 22.667969 57.683594 22.191406 56.105469 L 21.644531 54.324219 L 14.1875 52.28125 L 14.1875 43.882812 L 21.644531 41.851562 L 22.191406 40.058594 C 22.667969 38.492188 23.332031 36.925781 24.128906 35.414062 L 25.003906 33.753906 L 21.167969 27.039062 L 27.101562 21.09375 L 33.828125 24.929688 L 35.488281 24.054688 C 37.011719 23.246094 38.578125 22.59375 40.144531 22.117188 L 41.921875 21.558594 L 43.953125 14.113281 L 52.367188 14.113281 L 54.398438 21.558594 L 56.191406 22.117188 C 57.757812 22.59375 59.320312 23.246094 60.835938 24.054688 L 62.492188 24.929688 L 69.207031 21.09375 L 75.15625 27.039062 L 71.320312 33.753906 L 72.195312 35.414062 C 72.992188 36.925781 73.640625 38.492188 74.132812 40.058594 L 74.691406 41.851562 L 82.136719 43.882812 Z M 85.414062 129.507812 L 139.769531 129.507812 C 145.398438 129.507812 149.964844 124.925781 149.964844 119.3125 L 149.964844 115.917969 L 194.128906 115.917969 C 207.242188 115.917969 217.910156 105.246094 217.910156 92.136719 L 217.910156 68.351562 C 217.910156 55.242188 207.242188 44.570312 194.128906 44.570312 L 183.9375 44.570312 L 183.9375 41.175781 C 183.9375 35.546875 179.371094 30.980469 173.746094 30.980469 L 119.386719 30.980469 C 113.757812 30.980469 109.195312 35.546875 109.195312 41.175781 L 109.195312 44.570312 L 88.929688 44.570312 L 88.929688 38.691406 L 80.011719 36.265625 C 79.71875 35.480469 79.386719 34.699219 79.042969 33.929688 L 83.621094 25.898438 L 70.351562 12.613281 L 62.320312 17.207031 C 61.539062 16.847656 60.769531 16.53125 59.984375 16.238281 L 57.542969 7.320312 L 38.765625 7.320312 L 36.335938 16.238281 C 35.554688 16.53125 34.769531 16.847656 34.015625 17.207031 L 25.972656 12.613281 L 12.6875 25.898438 L 17.28125 33.929688 C 16.933594 34.699219 16.601562 35.480469 16.3125 36.265625 L 7.390625 38.691406 L 7.390625 57.472656 L 16.3125 59.914062 C 16.601562 60.695312 16.933594 61.464844 17.28125 62.234375 L 12.6875 70.277344 L 25.972656 83.546875 L 34.015625 78.96875 C 34.769531 79.316406 35.554688 79.648438 36.335938 79.9375 L 38.765625 88.855469 L 57.542969 88.855469 L 59.984375 79.9375 C 60.769531 79.648438 61.539062 79.316406 62.320312 78.96875 L 70.351562 83.546875 L 83.621094 70.277344 L 79.042969 62.234375 C 79.386719 61.464844 79.71875 60.695312 80.011719 59.914062 L 88.929688 57.472656 L 88.929688 51.367188 L 109.195312 51.367188 L 109.195312 54.765625 C 109.195312 60.378906 113.757812 64.957031 119.386719 64.957031 L 173.746094 64.957031 C 179.371094 64.957031 183.9375 60.378906 183.9375 54.765625 L 183.9375 51.367188 L 194.128906 51.367188 C 203.5 51.367188 211.117188 58.984375 211.117188 68.351562 L 211.117188 92.136719 C 211.117188 101.503906 203.5 109.121094 194.128906 109.121094 L 149.964844 109.121094 L 149.964844 105.722656 C 149.964844 100.097656 145.398438 95.53125 139.769531 95.53125 L 85.414062 95.53125 C 79.785156 95.53125 75.21875 100.097656 75.21875 105.722656 L 75.21875 109.121094 L 31.054688 109.121094 C 17.941406 109.121094 7.273438 119.792969 7.273438 132.902344 L 7.273438 160.082031 C 7.273438 173.195312 17.941406 183.863281 31.054688 183.863281 L 41.246094 183.863281 L 41.246094 187.261719 C 41.246094 192.875 45.8125 197.453125 51.4375 197.453125 L 105.796875 197.453125 C 111.425781 197.453125 115.988281 192.875 115.988281 187.261719 L 115.988281 183.863281 L 143.339844 183.863281 C 145.066406 202.882812 161.085938 217.839844 180.539062 217.839844 C 201.148438 217.839844 217.910156 201.078125 217.910156 180.464844 C 217.910156 159.855469 201.148438 143.09375 180.539062 143.09375 C 161.085938 143.09375 145.066406 158.050781 143.339844 177.070312 L 115.988281 177.070312 L 115.988281 173.671875 C 115.988281 168.046875 111.425781 163.480469 105.796875 163.480469 L 51.4375 163.480469 C 45.8125 163.480469 41.246094 168.046875 41.246094 173.671875 L 41.246094 177.070312 L 31.054688 177.070312 C 21.683594 177.070312 14.066406 169.453125 14.066406 160.082031 L 14.066406 132.902344 C 14.066406 123.535156 21.683594 115.917969 31.054688 115.917969 L 75.21875 115.917969 L 75.21875 119.3125 C 75.21875 124.925781 79.785156 129.507812 85.414062 129.507812"/></g><path fill="#0C5A8C" d="M 122.785156 109.121094 L 115.988281 109.121094 L 115.988281 115.917969 L 122.785156 115.917969 L 122.785156 109.121094"/><path fill="#0C5A8C" d="M 109.195312 109.121094 L 102.398438 109.121094 L 102.398438 115.917969 L 109.195312 115.917969 L 109.195312 109.121094"/><path fill="#0C5A8C" d="M 95.605469 109.121094 L 88.808594 109.121094 L 88.808594 115.917969 L 95.605469 115.917969 L 95.605469 109.121094"/><path fill="#0C5A8C" d="M 136.375 109.121094 L 129.578125 109.121094 L 129.578125 115.917969 L 136.375 115.917969 L 136.375 109.121094"/><path fill="#0C5A8C" d="M 75.21875 177.070312 L 68.425781 177.070312 L 68.425781 183.863281 L 75.21875 183.863281 L 75.21875 177.070312"/><path fill="#0C5A8C" d="M 102.398438 177.070312 L 95.605469 177.070312 L 95.605469 183.863281 L 102.398438 183.863281 L 102.398438 177.070312"/><path fill="#0C5A8C" d="M 88.808594 177.070312 L 82.015625 177.070312 L 82.015625 183.863281 L 88.808594 183.863281 L 88.808594 177.070312"/><path fill="#0C5A8C" d="M 61.632812 177.070312 L 54.835938 177.070312 L 54.835938 183.863281 L 61.632812 183.863281 L 61.632812 177.070312"/></svg>