<svg xmlns="http://www.w3.org/2000/svg" width="224.88" viewBox="0 0 224.88 225" height="225" version="1.0"><defs><clipPath id="a"><path d="M 0 0.0585938 L 224.761719 0.0585938 L 224.761719 224.9375 L 0 224.9375 Z M 0 0.0585938"/></clipPath><clipPath id="b"><path d="M 5.351562 130 L 219 130 L 219 219.796875 L 5.351562 219.796875 Z M 5.351562 130"/></clipPath></defs><g clip-path="url(#a)" fill="#FFF"><path d="M 0 0.0585938 L 224.878906 0.0585938 L 224.878906 224.941406 L 0 224.941406 Z M 0 0.0585938"/><path d="M 0 0.0585938 L 224.878906 0.0585938 L 224.878906 224.941406 L 0 224.941406 Z M 0 0.0585938"/></g><g clip-path="url(#b)"><path fill="#0C5A8C" d="M 214.234375 133.582031 C 213.75 133.15625 213.234375 132.777344 212.683594 132.441406 C 212.132812 132.109375 211.554688 131.832031 210.953125 131.605469 C 210.351562 131.375 209.734375 131.207031 209.097656 131.089844 C 208.464844 130.976562 207.828125 130.917969 207.183594 130.921875 C 206.539062 130.921875 205.902344 130.980469 205.269531 131.097656 C 204.636719 131.214844 204.019531 131.390625 203.417969 131.617188 C 202.816406 131.847656 202.238281 132.132812 201.691406 132.464844 C 201.140625 132.800781 200.625 133.179688 200.144531 133.609375 L 166.96875 163.199219 C 164.210938 165.664062 161.113281 167.582031 157.679688 168.957031 L 132.351562 179.148438 C 131.699219 179.414062 131.03125 179.472656 130.34375 179.332031 C 129.652344 179.1875 129.0625 178.867188 128.570312 178.367188 L 124.964844 174.75 L 147.566406 165.199219 C 147.714844 165.132812 147.859375 165.058594 148.003906 164.976562 C 151.449219 162.917969 154.195312 160.15625 156.234375 156.699219 C 156.769531 155.820312 157.167969 154.886719 157.425781 153.890625 C 157.6875 152.898438 157.800781 151.886719 157.769531 150.863281 C 157.738281 149.835938 157.558594 148.835938 157.234375 147.859375 C 156.910156 146.886719 156.453125 145.976562 155.867188 145.136719 C 155.296875 144.292969 154.617188 143.546875 153.828125 142.902344 C 153.039062 142.257812 152.175781 141.738281 151.234375 141.34375 C 150.292969 140.949219 149.316406 140.699219 148.304688 140.589844 C 147.292969 140.484375 146.285156 140.519531 145.28125 140.707031 L 107.191406 147.460938 C 102.21875 148.339844 97.597656 150.128906 93.324219 152.824219 L 79.460938 161.542969 C 76.933594 163.136719 74.238281 164.34375 71.371094 165.171875 C 68.503906 166 65.578125 166.414062 62.59375 166.410156 L 40.90625 166.410156 L 40.90625 162.914062 C 40.90625 162.441406 40.816406 161.988281 40.632812 161.550781 C 40.453125 161.117188 40.199219 160.730469 39.863281 160.398438 C 39.53125 160.066406 39.144531 159.808594 38.710938 159.628906 C 38.273438 159.449219 37.820312 159.355469 37.351562 159.355469 L 8.90625 159.355469 C 8.4375 159.355469 7.980469 159.449219 7.546875 159.628906 C 7.109375 159.808594 6.726562 160.066406 6.394531 160.398438 C 6.058594 160.730469 5.804688 161.117188 5.621094 161.550781 C 5.441406 161.988281 5.351562 162.441406 5.351562 162.914062 L 5.351562 216.242188 C 5.351562 216.714844 5.441406 217.167969 5.621094 217.601562 C 5.804688 218.039062 6.058594 218.421875 6.394531 218.757812 C 6.726562 219.089844 7.109375 219.347656 7.546875 219.527344 C 7.980469 219.707031 8.4375 219.796875 8.90625 219.796875 L 37.351562 219.796875 C 37.820312 219.796875 38.273438 219.707031 38.710938 219.527344 C 39.144531 219.347656 39.53125 219.089844 39.863281 218.757812 C 40.199219 218.421875 40.453125 218.039062 40.632812 217.601562 C 40.816406 217.167969 40.90625 216.714844 40.90625 216.242188 L 40.90625 212.332031 L 66.355469 209.769531 C 70.390625 209.355469 74.359375 209.710938 78.257812 210.835938 L 91.769531 214.714844 C 95.265625 215.722656 98.832031 216.222656 102.46875 216.222656 L 121.699219 216.222656 C 127.328125 216.234375 132.699219 215.0625 137.8125 212.714844 L 172.738281 196.753906 C 178.34375 194.179688 183.074219 190.488281 186.9375 185.675781 L 216.335938 149.003906 C 216.761719 148.472656 217.132812 147.90625 217.453125 147.304688 C 217.769531 146.703125 218.027344 146.078125 218.226562 145.425781 C 218.425781 144.777344 218.5625 144.113281 218.632812 143.4375 C 218.707031 142.757812 218.710938 142.082031 218.65625 141.402344 C 218.597656 140.726562 218.476562 140.058594 218.292969 139.402344 C 218.105469 138.75 217.859375 138.117188 217.554688 137.507812 C 217.25 136.902344 216.890625 136.328125 216.476562 135.789062 C 216.058594 135.25 215.597656 134.753906 215.085938 134.304688 Z M 33.792969 212.6875 L 12.460938 212.6875 L 12.460938 166.46875 L 33.792969 166.46875 Z M 210.773438 144.574219 L 181.375 181.25 C 178.21875 185.183594 174.347656 188.203125 169.765625 190.304688 L 134.84375 206.265625 C 130.667969 208.183594 126.285156 209.136719 121.6875 209.132812 L 102.453125 209.132812 C 99.484375 209.132812 96.574219 208.722656 93.71875 207.898438 L 80.210938 204.019531 C 75.433594 202.644531 70.574219 202.207031 65.632812 202.703125 L 40.894531 205.191406 L 40.894531 173.523438 L 62.582031 173.523438 C 66.234375 173.523438 69.816406 173.015625 73.324219 172.003906 C 76.835938 170.992188 80.136719 169.515625 83.226562 167.570312 L 97.09375 158.84375 C 100.585938 156.644531 104.363281 155.183594 108.429688 154.464844 L 146.515625 147.710938 C 147.191406 147.582031 147.847656 147.652344 148.480469 147.921875 C 149.117188 148.1875 149.625 148.605469 150.007812 149.179688 C 150.414062 149.761719 150.628906 150.40625 150.652344 151.117188 C 150.671875 151.828125 150.496094 152.484375 150.121094 153.089844 C 148.738281 155.445312 146.882812 157.339844 144.558594 158.777344 L 117.34375 170.25 C 117.078125 170.363281 116.828125 170.507812 116.59375 170.683594 C 116.363281 170.855469 116.152344 171.058594 115.96875 171.28125 C 115.785156 171.507812 115.632812 171.753906 115.507812 172.015625 C 115.386719 172.28125 115.296875 172.554688 115.242188 172.839844 C 115.183594 173.125 115.164062 173.414062 115.179688 173.703125 C 115.191406 173.992188 115.242188 174.277344 115.324219 174.554688 C 115.410156 174.835938 115.527344 175.097656 115.675781 175.347656 C 115.824219 175.597656 116 175.824219 116.207031 176.03125 L 123.523438 183.394531 C 124.257812 184.136719 125.082031 184.753906 126 185.25 C 126.917969 185.746094 127.886719 186.101562 128.910156 186.3125 C 129.929688 186.523438 130.960938 186.582031 132 186.488281 C 133.035156 186.394531 134.039062 186.152344 135.007812 185.761719 L 160.335938 175.570312 C 164.539062 173.878906 168.332031 171.523438 171.710938 168.503906 L 204.882812 138.914062 C 205.203125 138.628906 205.5625 138.414062 205.964844 138.261719 C 206.363281 138.109375 206.777344 138.03125 207.207031 138.03125 C 207.636719 138.03125 208.050781 138.109375 208.449219 138.261719 C 208.851562 138.414062 209.210938 138.628906 209.53125 138.914062 L 210.367188 139.652344 C 210.707031 139.960938 210.984375 140.316406 211.1875 140.730469 C 211.394531 141.140625 211.515625 141.574219 211.554688 142.03125 C 211.589844 142.488281 211.542969 142.9375 211.40625 143.378906 C 211.273438 143.816406 211.0625 144.214844 210.773438 144.574219 Z M 210.773438 144.574219"/></g><path fill="#0C5A8C" d="M 19.574219 198.464844 L 26.683594 198.464844 L 26.683594 205.578125 L 19.574219 205.578125 Z M 19.574219 198.464844"/><path fill="#0C5A8C" d="M 136.898438 116.695312 L 136.898438 110.246094 C 136.898438 100.867188 140.488281 86.730469 147.140625 79.011719 C 148.0625 77.953125 148.929688 76.851562 149.746094 75.707031 C 150.558594 74.5625 151.316406 73.382812 152.011719 72.164062 C 152.710938 70.945312 153.347656 69.695312 153.925781 68.414062 C 154.5 67.132812 155.011719 65.828125 155.460938 64.5 C 155.90625 63.167969 156.289062 61.820312 156.605469 60.449219 C 156.921875 59.082031 157.171875 57.703125 157.351562 56.308594 C 157.53125 54.917969 157.644531 53.519531 157.6875 52.117188 C 157.730469 50.714844 157.707031 49.3125 157.613281 47.910156 C 157.519531 46.511719 157.359375 45.117188 157.128906 43.730469 C 156.898438 42.347656 156.601562 40.976562 156.238281 39.621094 C 155.875 38.265625 155.445312 36.929688 154.953125 35.617188 C 154.457031 34.300781 153.898438 33.015625 153.277344 31.753906 C 152.660156 30.496094 151.976562 29.269531 151.238281 28.078125 C 150.496094 26.882812 149.699219 25.730469 148.847656 24.617188 C 147.992188 23.5 147.085938 22.429688 146.128906 21.40625 C 145.171875 20.378906 144.164062 19.402344 143.109375 18.472656 C 140.621094 16.257812 137.929688 14.328125 135.03125 12.679688 C 132.136719 11.03125 129.101562 9.699219 125.925781 8.691406 C 122.75 7.679688 119.503906 7.011719 116.191406 6.683594 C 112.875 6.351562 109.558594 6.375 106.25 6.742188 C 104.980469 6.863281 103.71875 7.035156 102.460938 7.261719 C 101.207031 7.488281 99.964844 7.765625 98.734375 8.097656 C 97.503906 8.429688 96.285156 8.8125 95.089844 9.246094 C 93.890625 9.679688 92.710938 10.160156 91.550781 10.695312 C 90.394531 11.226562 89.261719 11.808594 88.152344 12.4375 C 87.042969 13.066406 85.960938 13.738281 84.910156 14.460938 C 83.855469 15.179688 82.835938 15.941406 81.847656 16.746094 C 80.859375 17.554688 79.90625 18.398438 78.992188 19.285156 C 78.074219 20.171875 77.195312 21.09375 76.355469 22.054688 C 75.519531 23.015625 74.722656 24.007812 73.964844 25.035156 C 73.210938 26.0625 72.5 27.121094 71.835938 28.207031 C 71.167969 29.296875 70.550781 30.410156 69.976562 31.550781 C 69.40625 32.6875 68.882812 33.851562 68.410156 35.035156 C 67.933594 36.21875 67.511719 37.417969 67.140625 38.636719 C 66.765625 39.855469 66.445312 41.089844 66.175781 42.335938 C 65.90625 43.582031 65.691406 44.839844 65.53125 46.101562 C 65.199219 49.085938 65.179688 52.074219 65.476562 55.0625 C 65.773438 58.050781 66.375 60.972656 67.285156 63.835938 C 68.195312 66.695312 69.394531 69.429688 70.882812 72.039062 C 72.367188 74.648438 74.105469 77.078125 76.101562 79.320312 C 82.902344 87.066406 87.125 101.886719 87.125 111.171875 L 87.125 116.695312 C 87.125 117.164062 87.214844 117.617188 87.394531 118.054688 C 87.574219 118.488281 87.832031 118.875 88.164062 119.207031 C 88.5 119.539062 88.882812 119.796875 89.320312 119.976562 C 89.753906 120.160156 90.207031 120.25 90.679688 120.25 L 133.34375 120.25 C 133.816406 120.25 134.269531 120.160156 134.703125 119.976562 C 135.140625 119.796875 135.523438 119.539062 135.859375 119.207031 C 136.191406 118.875 136.449219 118.488281 136.628906 118.054688 C 136.808594 117.617188 136.898438 117.164062 136.898438 116.695312 Z M 129.789062 110.246094 L 129.789062 113.136719 L 94.234375 113.136719 L 94.234375 111.171875 C 94.21875 109.453125 94.105469 107.738281 93.90625 106.027344 L 129.976562 106.027344 C 129.851562 107.492188 129.789062 108.90625 129.789062 110.246094 Z M 92.695312 98.917969 C 91.8125 94.480469 90.421875 90.210938 88.519531 86.101562 C 86.621094 81.996094 84.265625 78.171875 81.457031 74.628906 C 79.789062 72.753906 78.332031 70.726562 77.085938 68.542969 C 75.84375 66.363281 74.839844 64.078125 74.078125 61.6875 C 73.3125 59.296875 72.808594 56.851562 72.558594 54.351562 C 72.308594 51.855469 72.320312 49.359375 72.597656 46.863281 C 72.738281 45.800781 72.925781 44.742188 73.152344 43.695312 C 73.382812 42.644531 73.65625 41.609375 73.976562 40.582031 C 74.292969 39.558594 74.652344 38.546875 75.054688 37.550781 C 75.457031 36.554688 75.902344 35.578125 76.386719 34.621094 C 76.871094 33.664062 77.394531 32.726562 77.960938 31.8125 C 78.523438 30.898438 79.125 30.011719 79.761719 29.148438 C 80.402344 28.285156 81.074219 27.449219 81.785156 26.644531 C 82.492188 25.839844 83.234375 25.0625 84.011719 24.320312 C 84.785156 23.574219 85.589844 22.867188 86.421875 22.191406 C 87.257812 21.515625 88.117188 20.875 89.007812 20.269531 C 89.894531 19.667969 90.804688 19.101562 91.742188 18.578125 C 92.675781 18.050781 93.632812 17.5625 94.609375 17.117188 C 95.585938 16.671875 96.582031 16.265625 97.589844 15.90625 C 98.601562 15.542969 99.625 15.222656 100.664062 14.949219 C 101.699219 14.671875 102.75 14.441406 103.804688 14.253906 C 104.863281 14.066406 105.925781 13.921875 106.996094 13.824219 C 109.808594 13.507812 112.628906 13.488281 115.449219 13.765625 C 118.265625 14.039062 121.027344 14.605469 123.730469 15.460938 C 126.429688 16.316406 129.011719 17.445312 131.476562 18.839844 C 133.941406 20.238281 136.234375 21.878906 138.351562 23.757812 C 139.238281 24.53125 140.082031 25.347656 140.886719 26.203125 C 141.6875 27.058594 142.449219 27.953125 143.164062 28.886719 C 143.882812 29.816406 144.550781 30.78125 145.171875 31.777344 C 145.792969 32.773438 146.363281 33.800781 146.886719 34.851562 C 147.40625 35.90625 147.875 36.980469 148.289062 38.082031 C 148.703125 39.179688 149.066406 40.296875 149.371094 41.429688 C 149.675781 42.566406 149.925781 43.710938 150.121094 44.871094 C 150.3125 46.03125 150.449219 47.195312 150.527344 48.367188 C 150.605469 49.539062 150.628906 50.714844 150.589844 51.886719 C 150.554688 53.0625 150.460938 54.230469 150.308594 55.394531 C 150.160156 56.5625 149.949219 57.714844 149.6875 58.859375 C 149.421875 60.003906 149.101562 61.132812 148.726562 62.246094 C 148.351562 63.359375 147.921875 64.453125 147.441406 65.523438 C 146.957031 66.597656 146.421875 67.640625 145.839844 68.660156 C 145.253906 69.679688 144.621094 70.664062 143.9375 71.621094 C 143.253906 72.578125 142.527344 73.5 141.753906 74.386719 C 138.988281 77.972656 136.699219 81.84375 134.882812 85.992188 C 133.070312 90.140625 131.78125 94.449219 131.027344 98.917969 Z M 92.695312 98.917969"/><path fill="#0C5A8C" d="M 94.234375 127.359375 L 129.789062 127.359375 L 129.789062 134.46875 L 94.234375 134.46875 Z M 94.234375 127.359375"/><path fill="#0C5A8C" d="M 140.253906 46.273438 C 140.464844 45.503906 140.511719 44.726562 140.398438 43.9375 C 140.285156 43.148438 140.023438 42.417969 139.609375 41.738281 L 135.597656 35.09375 C 135.390625 34.765625 135.15625 34.457031 134.890625 34.171875 C 134.625 33.890625 134.335938 33.632812 134.023438 33.402344 C 133.707031 33.171875 133.375 32.972656 133.023438 32.804688 C 132.671875 32.636719 132.308594 32.503906 131.933594 32.40625 C 131.554688 32.308594 131.171875 32.246094 130.785156 32.222656 C 130.398438 32.195312 130.007812 32.207031 129.625 32.253906 C 129.238281 32.300781 128.859375 32.382812 128.488281 32.503906 C 128.117188 32.621094 127.761719 32.777344 127.421875 32.960938 L 126.5 33.472656 C 125.109375 32.5 123.636719 31.679688 122.078125 31.011719 L 122.078125 30.199219 C 122.074219 29.804688 122.03125 29.417969 121.949219 29.03125 C 121.867188 28.644531 121.75 28.269531 121.597656 27.910156 C 121.441406 27.546875 121.253906 27.203125 121.03125 26.875 C 120.808594 26.550781 120.558594 26.25 120.277344 25.976562 C 119.996094 25.699219 119.691406 25.453125 119.359375 25.238281 C 119.03125 25.019531 118.683594 24.839844 118.316406 24.691406 C 117.953125 24.542969 117.578125 24.433594 117.191406 24.359375 C 116.804688 24.285156 116.414062 24.253906 116.019531 24.253906 L 108.003906 24.253906 C 107.613281 24.253906 107.222656 24.289062 106.835938 24.363281 C 106.449219 24.4375 106.074219 24.546875 105.710938 24.695312 C 105.34375 24.84375 105 25.027344 104.667969 25.242188 C 104.339844 25.457031 104.035156 25.703125 103.753906 25.980469 C 103.476562 26.253906 103.222656 26.554688 103.003906 26.882812 C 102.78125 27.207031 102.59375 27.550781 102.441406 27.910156 C 102.285156 28.273438 102.167969 28.648438 102.085938 29.03125 C 102.007812 29.417969 101.964844 29.804688 101.960938 30.199219 L 101.960938 31.011719 C 100.402344 31.679688 98.929688 32.503906 97.542969 33.476562 L 96.617188 32.960938 C 96.273438 32.777344 95.917969 32.621094 95.546875 32.503906 C 95.175781 32.382812 94.796875 32.300781 94.410156 32.253906 C 94.023438 32.207031 93.636719 32.199219 93.246094 32.222656 C 92.859375 32.25 92.476562 32.3125 92.101562 32.414062 C 91.722656 32.511719 91.359375 32.644531 91.007812 32.8125 C 90.65625 32.984375 90.324219 33.183594 90.011719 33.414062 C 89.699219 33.644531 89.410156 33.90625 89.144531 34.191406 C 88.878906 34.476562 88.644531 34.785156 88.441406 35.117188 L 84.433594 41.75 C 84.015625 42.429688 83.753906 43.164062 83.640625 43.953125 C 83.527344 44.742188 83.574219 45.523438 83.78125 46.292969 C 83.996094 47.074219 84.351562 47.785156 84.851562 48.425781 C 85.355469 49.0625 85.960938 49.578125 86.671875 49.972656 L 87.4375 50.390625 C 87.277344 51.941406 87.277344 53.492188 87.4375 55.039062 L 86.667969 55.464844 C 85.957031 55.855469 85.351562 56.371094 84.851562 57.007812 C 84.351562 57.644531 83.996094 58.355469 83.78125 59.140625 C 83.574219 59.910156 83.527344 60.6875 83.636719 61.476562 C 83.75 62.261719 84.015625 62.996094 84.429688 63.675781 L 88.441406 70.316406 C 88.644531 70.648438 88.882812 70.957031 89.148438 71.242188 C 89.410156 71.527344 89.699219 71.785156 90.015625 72.015625 C 90.328125 72.246094 90.660156 72.441406 91.011719 72.609375 C 91.363281 72.777344 91.726562 72.910156 92.105469 73.007812 C 92.480469 73.105469 92.863281 73.167969 93.253906 73.195312 C 93.640625 73.21875 94.027344 73.210938 94.414062 73.160156 C 94.800781 73.113281 95.179688 73.03125 95.550781 72.910156 C 95.917969 72.792969 96.277344 72.636719 96.617188 72.449219 L 97.539062 71.9375 C 98.925781 72.914062 100.398438 73.738281 101.957031 74.40625 L 101.957031 75.199219 C 101.960938 75.59375 102.003906 75.980469 102.085938 76.367188 C 102.164062 76.75 102.285156 77.125 102.4375 77.488281 C 102.589844 77.847656 102.78125 78.191406 103 78.515625 C 103.222656 78.84375 103.472656 79.144531 103.753906 79.417969 C 104.035156 79.695312 104.339844 79.941406 104.667969 80.15625 C 104.996094 80.371094 105.34375 80.554688 105.707031 80.699219 C 106.074219 80.847656 106.449219 80.960938 106.835938 81.035156 C 107.222656 81.105469 107.613281 81.144531 108.003906 81.140625 L 116.019531 81.140625 C 116.410156 81.144531 116.800781 81.105469 117.1875 81.03125 C 117.574219 80.957031 117.949219 80.847656 118.3125 80.699219 C 118.679688 80.550781 119.023438 80.371094 119.355469 80.152344 C 119.683594 79.9375 119.988281 79.691406 120.265625 79.414062 C 120.546875 79.140625 120.800781 78.839844 121.019531 78.515625 C 121.242188 78.1875 121.429688 77.847656 121.582031 77.484375 C 121.738281 77.121094 121.855469 76.75 121.933594 76.363281 C 122.015625 75.976562 122.058594 75.589844 122.0625 75.195312 L 122.0625 74.402344 C 123.621094 73.734375 125.09375 72.910156 126.480469 71.9375 L 127.40625 72.449219 C 127.746094 72.636719 128.105469 72.789062 128.476562 72.910156 C 128.847656 73.027344 129.226562 73.113281 129.613281 73.160156 C 130 73.207031 130.386719 73.214844 130.773438 73.191406 C 131.164062 73.164062 131.546875 73.101562 131.921875 73 C 132.300781 72.902344 132.664062 72.769531 133.015625 72.597656 C 133.367188 72.429688 133.699219 72.230469 134.011719 72 C 134.324219 71.769531 134.613281 71.507812 134.878906 71.222656 C 135.144531 70.9375 135.378906 70.628906 135.582031 70.296875 L 139.589844 63.664062 C 140.007812 62.984375 140.269531 62.25 140.382812 61.460938 C 140.496094 60.671875 140.449219 59.890625 140.242188 59.121094 C 140.027344 58.339844 139.671875 57.628906 139.167969 56.988281 C 138.667969 56.351562 138.0625 55.835938 137.351562 55.441406 L 136.585938 55.023438 C 136.746094 53.472656 136.746094 51.921875 136.585938 50.371094 L 137.355469 49.949219 C 138.066406 49.558594 138.675781 49.046875 139.179688 48.40625 C 139.683594 47.769531 140.042969 47.058594 140.253906 46.273438 Z M 129.609375 52.699219 C 129.609375 53.445312 129.554688 54.1875 129.449219 54.925781 C 129.367188 55.519531 129.378906 56.109375 129.476562 56.695312 C 129.578125 57.285156 129.761719 57.84375 130.03125 58.378906 C 130.304688 58.910156 130.648438 59.386719 131.066406 59.8125 C 131.484375 60.238281 131.957031 60.59375 132.484375 60.875 L 132.859375 61.078125 L 130.015625 65.765625 L 129.378906 65.410156 C 128.859375 65.132812 128.308594 64.929688 127.730469 64.804688 C 127.152344 64.679688 126.566406 64.640625 125.976562 64.683594 C 125.386719 64.726562 124.8125 64.851562 124.257812 65.054688 C 123.703125 65.261719 123.1875 65.539062 122.714844 65.890625 C 121.5 66.777344 120.199219 67.5 118.800781 68.054688 C 118.238281 68.269531 117.722656 68.5625 117.246094 68.929688 C 116.773438 69.300781 116.363281 69.734375 116.019531 70.226562 C 115.675781 70.722656 115.410156 71.257812 115.226562 71.828125 C 115.042969 72.402344 114.949219 72.992188 114.941406 73.59375 L 114.941406 74.03125 L 109.058594 74.03125 L 109.058594 73.59375 C 109.050781 72.992188 108.957031 72.402344 108.769531 71.828125 C 108.585938 71.257812 108.324219 70.722656 107.980469 70.226562 C 107.636719 69.734375 107.226562 69.300781 106.75 68.929688 C 106.277344 68.5625 105.757812 68.269531 105.195312 68.054688 C 103.800781 67.496094 102.496094 66.777344 101.285156 65.886719 C 100.808594 65.535156 100.292969 65.257812 99.738281 65.054688 C 99.183594 64.847656 98.609375 64.722656 98.019531 64.683594 C 97.429688 64.640625 96.847656 64.683594 96.269531 64.808594 C 95.6875 64.929688 95.140625 65.132812 94.617188 65.414062 L 93.984375 65.769531 L 91.140625 61.082031 L 91.53125 60.871094 C 92.054688 60.589844 92.527344 60.238281 92.941406 59.8125 C 93.359375 59.386719 93.703125 58.90625 93.972656 58.378906 C 94.242188 57.847656 94.425781 57.289062 94.527344 56.699219 C 94.625 56.113281 94.632812 55.523438 94.550781 54.933594 C 94.335938 53.445312 94.335938 51.960938 94.550781 50.472656 C 94.632812 49.882812 94.625 49.289062 94.523438 48.703125 C 94.425781 48.113281 94.242188 47.554688 93.96875 47.023438 C 93.699219 46.488281 93.355469 46.011719 92.9375 45.585938 C 92.515625 45.160156 92.046875 44.804688 91.519531 44.523438 L 91.140625 44.320312 L 93.984375 39.632812 L 94.621094 39.988281 C 95.144531 40.269531 95.695312 40.46875 96.273438 40.59375 C 96.851562 40.71875 97.433594 40.757812 98.023438 40.714844 C 98.617188 40.671875 99.1875 40.550781 99.742188 40.34375 C 100.296875 40.136719 100.8125 39.859375 101.289062 39.507812 C 102.5 38.621094 103.804688 37.902344 105.199219 37.347656 C 105.761719 37.132812 106.28125 36.839844 106.753906 36.46875 C 107.230469 36.097656 107.640625 35.664062 107.984375 35.171875 C 108.328125 34.675781 108.589844 34.144531 108.773438 33.570312 C 108.957031 32.996094 109.054688 32.410156 109.0625 31.808594 L 109.0625 31.367188 L 114.96875 31.367188 L 114.96875 31.804688 C 114.976562 32.40625 115.070312 32.992188 115.253906 33.566406 C 115.4375 34.140625 115.703125 34.671875 116.046875 35.167969 C 116.390625 35.660156 116.800781 36.09375 117.273438 36.464844 C 117.75 36.835938 118.269531 37.128906 118.832031 37.34375 C 120.226562 37.898438 121.53125 38.621094 122.742188 39.507812 C 123.21875 39.859375 123.734375 40.136719 124.289062 40.34375 C 124.84375 40.546875 125.414062 40.667969 126.007812 40.710938 C 126.597656 40.753906 127.179688 40.710938 127.757812 40.589844 C 128.335938 40.464844 128.886719 40.261719 129.40625 39.980469 L 130.039062 39.625 L 132.886719 44.3125 L 132.496094 44.523438 C 131.972656 44.804688 131.5 45.160156 131.085938 45.582031 C 130.667969 46.007812 130.324219 46.488281 130.054688 47.019531 C 129.785156 47.550781 129.597656 48.109375 129.5 48.695312 C 129.402344 49.28125 129.394531 49.871094 129.476562 50.460938 C 129.574219 51.203125 129.617188 51.949219 129.609375 52.699219 Z M 129.609375 52.699219"/><path fill="#0C5A8C" d="M 112.011719 42.03125 C 111.3125 42.03125 110.617188 42.101562 109.929688 42.238281 C 109.242188 42.375 108.578125 42.574219 107.929688 42.84375 C 107.28125 43.113281 106.667969 43.441406 106.085938 43.828125 C 105.503906 44.21875 104.964844 44.660156 104.46875 45.15625 C 103.972656 45.652344 103.53125 46.191406 103.144531 46.773438 C 102.753906 47.355469 102.425781 47.96875 102.15625 48.617188 C 101.890625 49.261719 101.6875 49.929688 101.550781 50.617188 C 101.414062 51.304688 101.34375 51.996094 101.34375 52.699219 C 101.34375 53.398438 101.414062 54.089844 101.550781 54.777344 C 101.6875 55.464844 101.890625 56.132812 102.15625 56.78125 C 102.425781 57.425781 102.753906 58.042969 103.144531 58.625 C 103.53125 59.207031 103.972656 59.746094 104.46875 60.238281 C 104.964844 60.734375 105.503906 61.175781 106.085938 61.566406 C 106.667969 61.957031 107.28125 62.285156 107.929688 62.550781 C 108.578125 62.820312 109.242188 63.023438 109.929688 63.160156 C 110.617188 63.296875 111.3125 63.363281 112.011719 63.363281 C 112.710938 63.363281 113.40625 63.296875 114.09375 63.160156 C 114.777344 63.023438 115.445312 62.820312 116.09375 62.550781 C 116.742188 62.285156 117.355469 61.957031 117.9375 61.566406 C 118.519531 61.175781 119.058594 60.734375 119.554688 60.238281 C 120.046875 59.746094 120.492188 59.207031 120.878906 58.625 C 121.269531 58.042969 121.597656 57.425781 121.867188 56.78125 C 122.132812 56.132812 122.335938 55.464844 122.472656 54.777344 C 122.609375 54.089844 122.675781 53.398438 122.675781 52.699219 C 122.675781 51.996094 122.609375 51.304688 122.472656 50.617188 C 122.335938 49.929688 122.132812 49.261719 121.867188 48.617188 C 121.597656 47.96875 121.269531 47.355469 120.878906 46.773438 C 120.492188 46.191406 120.046875 45.652344 119.554688 45.15625 C 119.058594 44.660156 118.519531 44.21875 117.9375 43.828125 C 117.355469 43.441406 116.742188 43.113281 116.09375 42.84375 C 115.445312 42.574219 114.777344 42.375 114.09375 42.238281 C 113.40625 42.101562 112.710938 42.03125 112.011719 42.03125 Z M 112.011719 56.253906 C 111.539062 56.253906 111.085938 56.164062 110.652344 55.984375 C 110.214844 55.800781 109.832031 55.546875 109.496094 55.210938 C 109.164062 54.878906 108.90625 54.492188 108.726562 54.058594 C 108.546875 53.621094 108.457031 53.167969 108.457031 52.699219 C 108.457031 52.226562 108.546875 51.773438 108.726562 51.335938 C 108.90625 50.902344 109.164062 50.515625 109.496094 50.183594 C 109.832031 49.851562 110.214844 49.59375 110.652344 49.414062 C 111.085938 49.234375 111.539062 49.140625 112.011719 49.140625 C 112.484375 49.140625 112.9375 49.234375 113.371094 49.414062 C 113.808594 49.59375 114.191406 49.851562 114.527344 50.183594 C 114.859375 50.515625 115.117188 50.902344 115.296875 51.335938 C 115.476562 51.773438 115.566406 52.226562 115.566406 52.699219 C 115.566406 53.167969 115.476562 53.621094 115.296875 54.058594 C 115.117188 54.492188 114.859375 54.878906 114.527344 55.210938 C 114.191406 55.546875 113.808594 55.800781 113.371094 55.984375 C 112.9375 56.164062 112.484375 56.253906 112.011719 56.253906 Z M 112.011719 56.253906"/><path fill="#0C5A8C" d="M 56.710938 103.070312 L 67.375 95.957031 L 71.320312 101.875 L 60.652344 108.984375 Z M 56.710938 103.070312"/><path fill="#0C5A8C" d="M 40.90625 52.699219 L 55.125 52.699219 L 55.125 59.808594 L 40.90625 59.808594 Z M 40.90625 52.699219"/><path fill="#0C5A8C" d="M 53.152344 12.992188 L 57.097656 7.074219 L 67.765625 14.1875 L 63.820312 20.101562 Z M 53.152344 12.992188"/><path fill="#0C5A8C" d="M 152.703125 101.875 L 156.648438 95.957031 L 167.3125 103.070312 L 163.371094 108.984375 Z M 152.703125 101.875"/><path fill="#0C5A8C" d="M 168.898438 52.699219 L 183.117188 52.699219 L 183.117188 59.808594 L 168.898438 59.808594 Z M 168.898438 52.699219"/><path fill="#0C5A8C" d="M 156.257812 14.1875 L 166.925781 7.074219 L 170.871094 12.992188 L 160.203125 20.101562 Z M 156.257812 14.1875"/></svg>