<svg xmlns="http://www.w3.org/2000/svg" width="224.88" viewBox="0 0 224.88 225" height="225" version="1.0"><defs><clipPath id="a"><path d="M 0 0.0585938 L 224.761719 0.0585938 L 224.761719 224.9375 L 0 224.9375 Z M 0 0.0585938"/></clipPath><clipPath id="b"><path d="M 4 4.0625 L 221 4.0625 L 221 220.699219 L 4 220.699219 Z M 4 4.0625"/></clipPath></defs><g clip-path="url(#a)" fill="#FFF"><path d="M 0 0.0585938 L 224.878906 0.0585938 L 224.878906 224.941406 L 0 224.941406 Z M 0 0.0585938"/><path d="M 0 0.0585938 L 224.878906 0.0585938 L 224.878906 224.941406 L 0 224.941406 Z M 0 0.0585938"/></g><path fill="#0C5A8C" d="M 66.085938 32.761719 C 66.027344 32.492188 65.949219 32.226562 65.84375 31.972656 C 65.738281 31.714844 65.605469 31.46875 65.457031 31.242188 C 65.300781 31.007812 65.125 30.792969 64.929688 30.601562 C 64.734375 30.40625 64.519531 30.230469 64.285156 30.078125 C 64.058594 29.925781 63.8125 29.792969 63.554688 29.6875 C 63.300781 29.582031 63.035156 29.496094 62.765625 29.449219 C 62.222656 29.335938 61.664062 29.335938 61.113281 29.449219 C 60.847656 29.496094 60.578125 29.582031 60.324219 29.6875 C 60.066406 29.792969 59.824219 29.925781 59.59375 30.078125 C 59.363281 30.230469 59.148438 30.40625 58.953125 30.601562 C 58.757812 30.792969 58.582031 31.007812 58.425781 31.242188 C 58.273438 31.46875 58.140625 31.714844 58.035156 31.972656 C 57.929688 32.226562 57.847656 32.492188 57.796875 32.761719 C 57.742188 33.03125 57.714844 33.3125 57.714844 33.585938 C 57.714844 34.695312 58.167969 35.785156 58.953125 36.570312 C 59.148438 36.765625 59.363281 36.941406 59.59375 37.097656 C 59.824219 37.25 60.066406 37.382812 60.320312 37.488281 C 60.578125 37.59375 60.847656 37.671875 61.113281 37.730469 C 61.386719 37.78125 61.667969 37.808594 61.941406 37.808594 C 62.214844 37.808594 62.496094 37.78125 62.765625 37.730469 C 63.035156 37.671875 63.300781 37.59375 63.554688 37.488281 C 63.8125 37.382812 64.058594 37.25 64.285156 37.097656 C 64.519531 36.941406 64.734375 36.765625 64.929688 36.570312 C 65.714844 35.785156 66.167969 34.695312 66.167969 33.585938 C 66.167969 33.3125 66.136719 33.03125 66.085938 32.761719 Z M 66.085938 32.761719"/><path fill="#0C5A8C" d="M 66.085938 190.773438 C 66.027344 190.503906 65.949219 190.238281 65.84375 189.980469 C 65.738281 189.726562 65.605469 189.484375 65.453125 189.253906 C 65.300781 189.019531 65.125 188.808594 64.929688 188.609375 C 64.734375 188.417969 64.519531 188.238281 64.285156 188.082031 C 64.058594 187.933594 63.8125 187.804688 63.554688 187.699219 C 63.300781 187.59375 63.035156 187.511719 62.765625 187.460938 C 62.222656 187.347656 61.65625 187.347656 61.113281 187.460938 C 60.847656 187.511719 60.578125 187.59375 60.320312 187.699219 C 60.066406 187.804688 59.824219 187.933594 59.59375 188.082031 C 59.363281 188.238281 59.148438 188.417969 58.953125 188.609375 C 58.757812 188.808594 58.578125 189.019531 58.425781 189.253906 C 58.273438 189.484375 58.140625 189.726562 58.035156 189.980469 C 57.929688 190.238281 57.847656 190.503906 57.792969 190.773438 C 57.738281 191.042969 57.714844 191.324219 57.714844 191.597656 C 57.714844 191.871094 57.738281 192.152344 57.792969 192.421875 C 57.847656 192.691406 57.933594 192.957031 58.039062 193.210938 C 58.144531 193.46875 58.277344 193.714844 58.429688 193.941406 C 58.578125 194.175781 58.757812 194.386719 58.953125 194.582031 C 59.148438 194.777344 59.363281 194.953125 59.59375 195.105469 C 59.824219 195.257812 60.066406 195.390625 60.320312 195.496094 C 60.578125 195.601562 60.847656 195.679688 61.113281 195.738281 C 61.386719 195.789062 61.667969 195.820312 61.941406 195.820312 C 62.214844 195.820312 62.496094 195.789062 62.765625 195.738281 C 63.035156 195.679688 63.300781 195.601562 63.554688 195.496094 C 63.8125 195.390625 64.058594 195.257812 64.285156 195.105469 C 64.519531 194.953125 64.734375 194.777344 64.929688 194.582031 C 65.125 194.386719 65.300781 194.175781 65.453125 193.941406 C 65.605469 193.714844 65.738281 193.46875 65.84375 193.210938 C 65.949219 192.957031 66.027344 192.691406 66.085938 192.421875 C 66.136719 192.152344 66.167969 191.871094 66.167969 191.597656 C 66.167969 191.324219 66.136719 191.042969 66.085938 190.773438 Z M 66.085938 190.773438"/><g clip-path="url(#b)"><path fill="#0C5A8C" d="M 195.152344 139.941406 C 193.769531 138.558594 191.667969 138.335938 190.050781 139.273438 C 189.359375 136.632812 188.023438 134.132812 186.023438 132.042969 C 185.316406 131.304688 184.832031 130.386719 184.625 129.390625 L 181.113281 112.589844 L 184.625 95.796875 C 184.832031 94.796875 185.316406 93.878906 186.023438 93.140625 C 188.023438 91.050781 189.359375 88.550781 190.050781 85.910156 C 190.703125 86.289062 191.429688 86.480469 192.164062 86.480469 C 193.246094 86.480469 194.328125 86.066406 195.152344 85.242188 L 219.398438 61.023438 C 221.046875 59.371094 221.046875 56.699219 219.398438 55.050781 L 170.023438 5.722656 C 168.371094 4.074219 165.695312 4.074219 164.042969 5.722656 L 139.800781 29.945312 C 138.207031 31.53125 138.15625 34.074219 139.632812 35.730469 C 135.324219 36.386719 131.347656 38.386719 128.207031 41.523438 L 112.425781 57.292969 L 96.640625 41.523438 C 93.421875 38.308594 89.394531 36.382812 85.207031 35.742188 C 86.691406 34.085938 86.644531 31.535156 85.050781 29.945312 L 60.804688 5.722656 C 59.152344 4.074219 56.476562 4.074219 54.824219 5.722656 L 5.453125 55.050781 C 3.800781 56.699219 3.800781 59.371094 5.453125 61.023438 L 29.695312 85.242188 C 30.523438 86.066406 31.605469 86.480469 32.683594 86.480469 C 33.417969 86.480469 34.148438 86.289062 34.800781 85.910156 C 35.484375 88.550781 36.824219 91.050781 38.824219 93.140625 C 39.53125 93.878906 40.015625 94.796875 40.226562 95.796875 L 43.734375 112.59375 L 40.226562 129.386719 C 40.015625 130.386719 39.53125 131.304688 38.824219 132.042969 C 36.824219 134.132812 35.484375 136.628906 34.796875 139.273438 C 33.179688 138.335938 31.078125 138.554688 29.695312 139.9375 L 5.453125 164.160156 C 3.800781 165.8125 3.800781 168.484375 5.453125 170.136719 L 54.824219 219.460938 C 55.652344 220.285156 56.734375 220.699219 57.8125 220.699219 C 58.898438 220.699219 59.980469 220.285156 60.804688 219.460938 L 85.050781 195.238281 C 86.644531 193.648438 86.691406 191.097656 85.207031 189.441406 C 89.394531 188.800781 93.421875 186.875 96.640625 183.660156 L 112.425781 167.890625 L 128.207031 183.660156 C 131.425781 186.875 135.453125 188.800781 139.640625 189.441406 C 138.152344 191.097656 138.203125 193.648438 139.800781 195.238281 L 164.042969 219.460938 C 164.871094 220.285156 165.953125 220.699219 167.03125 220.699219 C 168.113281 220.699219 169.195312 220.285156 170.023438 219.460938 L 219.398438 170.136719 C 221.046875 168.484375 221.046875 165.8125 219.398438 164.160156 Z M 206.34375 53.953125 C 207.4375 55.042969 208.039062 56.496094 208.039062 58.035156 C 208.039062 59.578125 207.4375 61.027344 206.34375 62.117188 C 204.09375 64.367188 200.429688 64.363281 198.175781 62.117188 C 195.921875 59.867188 195.921875 56.207031 198.175781 53.953125 C 200.429688 51.703125 204.09375 51.703125 206.34375 53.953125 Z M 167.03125 14.679688 L 197.152344 44.769531 C 195.347656 45.464844 193.652344 46.53125 192.199219 47.984375 L 192.195312 47.984375 C 190.601562 49.578125 189.464844 51.464844 188.789062 53.46875 L 177.054688 41.746094 C 175.40625 40.101562 172.730469 40.101562 171.078125 41.746094 C 169.425781 43.398438 169.425781 46.070312 171.078125 47.722656 L 195.917969 72.535156 L 192.164062 76.289062 L 185.765625 69.890625 L 157.367188 41.523438 L 148.765625 32.929688 Z M 134.1875 47.496094 C 136.484375 45.199219 139.539062 43.933594 142.789062 43.933594 C 146.035156 43.933594 149.09375 45.199219 151.390625 47.496094 L 179.785156 75.863281 C 182.910156 78.980469 182.964844 84.117188 179.914062 87.300781 C 178.113281 89.183594 176.882812 91.523438 176.347656 94.066406 L 169.886719 124.980469 C 169.171875 127.4375 166.613281 128.882812 164.132812 128.222656 C 161.621094 127.546875 160.121094 124.960938 160.796875 122.445312 C 160.816406 122.371094 160.835938 122.292969 160.851562 122.214844 L 162.261719 115.457031 C 162.644531 113.628906 161.777344 111.765625 160.132812 110.878906 C 158.488281 109.988281 156.457031 110.289062 155.132812 111.609375 L 124.582031 142.1875 C 124.539062 142.234375 124.5 142.277344 124.457031 142.320312 L 123.859375 142.917969 C 123.851562 142.921875 123.847656 142.929688 123.839844 142.9375 C 122.105469 144.550781 119.363281 144.457031 117.726562 142.726562 C 116.183594 141.09375 116.207031 138.457031 117.769531 136.726562 C 117.824219 136.664062 117.878906 136.605469 117.945312 136.542969 L 135.246094 119.257812 C 135.25 119.253906 135.253906 119.25 135.257812 119.242188 L 140.796875 113.710938 C 142.445312 112.058594 142.445312 109.386719 140.796875 107.738281 C 139.144531 106.089844 136.46875 106.089844 134.820312 107.738281 L 129.113281 113.4375 C 129.089844 113.457031 129.070312 113.480469 129.046875 113.5 L 108.582031 133.828125 C 106.980469 135.132812 104.65625 135.101562 103.078125 133.800781 C 102.972656 133.710938 102.867188 133.621094 102.773438 133.519531 C 101.171875 131.921875 101.070312 129.332031 102.546875 127.625 C 102.570312 127.597656 102.589844 127.570312 102.609375 127.542969 L 128.621094 101.5625 C 130.269531 99.910156 130.269531 97.238281 128.621094 95.589844 C 126.96875 93.941406 124.292969 93.941406 122.640625 95.589844 L 96.699219 121.507812 C 96.648438 121.546875 96.59375 121.582031 96.542969 121.628906 C 95.199219 122.785156 93.308594 122.964844 91.78125 122.214844 C 91.371094 122.011719 90.980469 121.742188 90.636719 121.402344 C 90.628906 121.390625 90.625 121.382812 90.613281 121.375 C 90.507812 121.269531 90.410156 121.15625 90.316406 121.039062 C 90.292969 121.011719 90.273438 120.980469 90.25 120.949219 C 90.167969 120.847656 90.09375 120.738281 90.023438 120.628906 C 90.011719 120.605469 90 120.585938 89.988281 120.566406 C 89.824219 120.289062 89.683594 119.988281 89.582031 119.667969 C 89.507812 119.445312 89.453125 119.226562 89.417969 119.003906 C 89.414062 118.992188 89.414062 118.980469 89.414062 118.96875 C 89.398438 118.875 89.386719 118.78125 89.378906 118.691406 C 89.367188 118.570312 89.363281 118.453125 89.359375 118.332031 C 89.363281 118.078125 89.382812 117.832031 89.425781 117.589844 C 89.429688 117.5625 89.4375 117.539062 89.441406 117.515625 C 89.480469 117.296875 89.539062 117.082031 89.613281 116.871094 C 89.613281 116.867188 89.613281 116.867188 89.617188 116.863281 C 89.65625 116.75 89.699219 116.640625 89.75 116.53125 C 89.753906 116.519531 89.761719 116.515625 89.765625 116.5 C 89.8125 116.402344 89.863281 116.300781 89.917969 116.203125 C 89.941406 116.160156 89.964844 116.121094 89.992188 116.082031 C 90.03125 116.015625 90.066406 115.949219 90.109375 115.890625 C 90.121094 115.875 90.132812 115.863281 90.140625 115.847656 C 90.203125 115.761719 90.265625 115.675781 90.332031 115.59375 L 90.363281 115.5625 L 99.140625 106.714844 C 99.152344 106.695312 99.167969 106.679688 99.183594 106.660156 C 99.191406 106.652344 99.199219 106.648438 99.210938 106.640625 L 116.414062 89.460938 C 118.066406 87.8125 118.066406 85.136719 116.417969 83.488281 C 114.765625 81.835938 112.089844 81.835938 110.4375 83.484375 L 93.285156 100.613281 C 91.757812 101.867188 89.609375 101.910156 88.035156 100.796875 C 88.03125 100.792969 88.027344 100.789062 88.023438 100.785156 C 87.789062 100.613281 87.574219 100.429688 87.382812 100.226562 C 87.265625 100.105469 87.160156 99.976562 87.066406 99.84375 C 87.035156 99.800781 87.007812 99.761719 86.976562 99.71875 C 86.910156 99.621094 86.851562 99.523438 86.792969 99.425781 C 86.765625 99.375 86.738281 99.324219 86.710938 99.273438 C 86.648438 99.15625 86.597656 99.035156 86.546875 98.910156 C 86.523438 98.851562 86.5 98.792969 86.480469 98.730469 C 86.445312 98.621094 86.410156 98.507812 86.378906 98.394531 C 86.363281 98.328125 86.347656 98.265625 86.335938 98.203125 C 86.3125 98.097656 86.296875 97.988281 86.28125 97.882812 C 86.273438 97.828125 86.269531 97.777344 86.261719 97.722656 C 86.246094 97.558594 86.238281 97.390625 86.242188 97.222656 C 86.242188 97.214844 86.242188 97.207031 86.242188 97.195312 C 86.246094 97.023438 86.261719 96.847656 86.285156 96.671875 C 86.289062 96.65625 86.289062 96.644531 86.292969 96.632812 C 86.320312 96.449219 86.359375 96.265625 86.410156 96.085938 C 86.410156 96.082031 86.410156 96.082031 86.410156 96.082031 C 86.5 95.746094 86.632812 95.421875 86.796875 95.117188 C 86.8125 95.097656 86.820312 95.074219 86.832031 95.054688 C 86.902344 94.925781 86.980469 94.800781 87.066406 94.683594 C 87.082031 94.65625 87.101562 94.628906 87.117188 94.609375 C 87.21875 94.464844 87.324219 94.332031 87.4375 94.207031 C 87.484375 94.148438 87.539062 94.097656 87.597656 94.039062 Z M 26.671875 62.117188 C 24.421875 64.363281 20.761719 64.367188 18.507812 62.121094 L 18.496094 62.109375 C 17.410156 61.023438 16.8125 59.574219 16.8125 58.035156 C 16.8125 56.496094 17.414062 55.042969 18.503906 53.953125 C 19.628906 52.832031 21.109375 52.269531 22.589844 52.269531 C 24.066406 52.269531 25.546875 52.832031 26.671875 53.953125 C 28.925781 56.207031 28.925781 59.867188 26.671875 62.117188 Z M 39.085938 69.890625 L 32.683594 76.289062 L 28.929688 72.535156 L 53.769531 47.722656 C 55.421875 46.070312 55.421875 43.398438 53.769531 41.746094 C 52.121094 40.101562 49.445312 40.101562 47.792969 41.746094 L 36.058594 53.46875 C 35.382812 51.464844 34.246094 49.578125 32.652344 47.984375 C 31.199219 46.527344 29.503906 45.460938 27.695312 44.769531 L 57.816406 14.679688 L 76.082031 32.929688 Z M 45.0625 75.863281 L 73.460938 47.496094 C 78.203125 42.757812 85.917969 42.753906 90.664062 47.496094 L 106.449219 63.265625 L 81.625 88.0625 C 81.460938 88.226562 81.300781 88.394531 81.148438 88.5625 C 81.0625 88.660156 80.980469 88.757812 80.898438 88.851562 C 80.851562 88.910156 80.800781 88.964844 80.753906 89.023438 C 80.121094 89.792969 79.59375 90.617188 79.164062 91.484375 C 79.148438 91.515625 79.132812 91.550781 79.113281 91.585938 C 79.074219 91.667969 79.035156 91.753906 78.996094 91.839844 C 78.867188 92.117188 78.746094 92.402344 78.636719 92.6875 L 72.417969 98.914062 C 72.136719 97.535156 71.628906 96.191406 70.902344 94.9375 C 69.144531 91.890625 66.304688 89.710938 62.902344 88.804688 C 62.644531 88.734375 62.386719 88.675781 62.128906 88.625 C 62.054688 88.605469 61.976562 88.59375 61.902344 88.582031 C 61.710938 88.542969 61.519531 88.515625 61.332031 88.484375 C 61.253906 88.476562 61.175781 88.464844 61.097656 88.453125 C 60.878906 88.429688 60.65625 88.40625 60.4375 88.390625 C 60.402344 88.386719 60.359375 88.382812 60.324219 88.382812 C 60.058594 88.363281 59.796875 88.355469 59.539062 88.355469 C 59.523438 88.355469 59.511719 88.355469 59.5 88.355469 C 59.460938 88.355469 59.421875 88.359375 59.386719 88.359375 C 59.179688 88.359375 58.976562 88.363281 58.773438 88.375 C 58.703125 88.382812 58.636719 88.382812 58.566406 88.390625 C 58.371094 88.40625 58.171875 88.421875 57.976562 88.449219 C 57.917969 88.453125 57.863281 88.457031 57.808594 88.464844 C 57.304688 88.53125 56.804688 88.625 56.316406 88.746094 C 56.265625 88.761719 56.214844 88.773438 56.164062 88.785156 C 55.972656 88.839844 55.777344 88.894531 55.585938 88.957031 C 55.527344 88.972656 55.46875 88.992188 55.40625 89.011719 C 55.210938 89.074219 55.011719 89.144531 54.820312 89.21875 C 54.78125 89.234375 54.742188 89.246094 54.703125 89.261719 C 54.464844 89.355469 54.230469 89.453125 53.996094 89.5625 C 53.988281 89.566406 53.984375 89.570312 53.976562 89.574219 C 53.757812 89.671875 53.546875 89.777344 53.335938 89.890625 C 53.28125 89.917969 53.226562 89.949219 53.171875 89.980469 C 53.003906 90.070312 52.84375 90.167969 52.679688 90.261719 C 52.621094 90.296875 52.566406 90.332031 52.511719 90.367188 C 52.328125 90.480469 52.152344 90.597656 51.976562 90.71875 C 51.949219 90.738281 51.917969 90.757812 51.890625 90.777344 C 51.6875 90.921875 51.484375 91.070312 51.289062 91.226562 C 51.253906 91.253906 51.214844 91.289062 51.179688 91.320312 C 51.023438 91.441406 50.875 91.574219 50.726562 91.703125 C 50.667969 91.75 50.613281 91.804688 50.558594 91.855469 C 50.425781 91.976562 50.296875 92.101562 50.171875 92.226562 C 50.121094 92.277344 50.066406 92.328125 50.015625 92.378906 C 49.859375 92.542969 49.703125 92.710938 49.554688 92.878906 C 49.542969 92.894531 49.527344 92.910156 49.515625 92.925781 C 49.355469 93.113281 49.195312 93.304688 49.046875 93.503906 C 49.003906 93.558594 48.960938 93.617188 48.917969 93.671875 C 48.8125 93.816406 48.707031 93.964844 48.605469 94.113281 C 48.582031 94.148438 48.554688 94.179688 48.53125 94.214844 L 48.5 94.066406 C 47.96875 91.519531 46.738281 89.179688 44.9375 87.300781 C 41.882812 84.117188 41.941406 78.980469 45.0625 75.863281 Z M 18.5 171.226562 C 17.414062 170.140625 16.8125 168.691406 16.8125 167.148438 C 16.8125 165.605469 17.414062 164.15625 18.503906 163.066406 C 19.628906 161.941406 21.109375 161.382812 22.589844 161.382812 C 24.066406 161.382812 25.546875 161.941406 26.671875 163.066406 C 28.925781 165.320312 28.925781 168.976562 26.671875 171.226562 C 24.421875 173.476562 20.753906 173.476562 18.5 171.226562 Z M 57.8125 210.503906 L 27.695312 180.410156 C 29.503906 179.722656 31.199219 178.652344 32.652344 177.199219 C 34.246094 175.601562 35.382812 173.722656 36.058594 171.714844 L 47.792969 183.433594 C 48.621094 184.257812 49.699219 184.671875 50.78125 184.671875 C 51.863281 184.671875 52.945312 184.257812 53.769531 183.433594 C 55.421875 181.785156 55.421875 179.109375 53.769531 177.460938 L 28.929688 152.644531 L 32.683594 148.898438 L 76.082031 192.25 Z M 90.664062 177.6875 C 88.363281 179.984375 85.308594 181.246094 82.058594 181.246094 C 78.8125 181.246094 75.757812 179.984375 73.460938 177.6875 L 45.0625 149.316406 C 41.941406 146.199219 41.882812 141.066406 44.933594 137.878906 C 46.734375 136 47.96875 133.660156 48.5 131.113281 L 54.960938 100.199219 C 55.675781 97.746094 58.234375 96.300781 60.714844 96.960938 C 60.875 97.003906 61.023438 97.054688 61.171875 97.109375 C 61.195312 97.117188 61.21875 97.128906 61.242188 97.140625 C 61.367188 97.1875 61.488281 97.242188 61.609375 97.296875 C 61.613281 97.300781 61.617188 97.304688 61.621094 97.308594 C 63.289062 98.148438 64.308594 99.910156 64.207031 101.769531 C 64.207031 101.777344 64.207031 101.789062 64.207031 101.800781 C 64.199219 101.925781 64.179688 102.054688 64.164062 102.183594 C 64.160156 102.210938 64.160156 102.242188 64.152344 102.269531 C 64.128906 102.425781 64.09375 102.582031 64.054688 102.738281 C 64.03125 102.8125 64.015625 102.890625 63.996094 102.96875 L 62.585938 109.726562 C 62.203125 111.554688 63.070312 113.417969 64.714844 114.304688 C 66.359375 115.195312 68.394531 114.894531 69.714844 113.570312 L 79.523438 103.757812 C 79.78125 104.199219 80.078125 104.625 80.390625 105.035156 C 80.417969 105.070312 80.445312 105.101562 80.46875 105.136719 C 80.554688 105.242188 80.640625 105.347656 80.726562 105.453125 C 80.78125 105.515625 80.832031 105.578125 80.882812 105.640625 C 80.910156 105.671875 80.933594 105.699219 80.957031 105.726562 C 80.921875 106.101562 80.90625 106.484375 80.90625 106.863281 C 80.90625 108.867188 81.378906 110.828125 82.265625 112.59375 C 82.25 112.621094 82.238281 112.652344 82.222656 112.6875 C 82.144531 112.839844 82.074219 112.996094 82.003906 113.152344 C 81.984375 113.203125 81.960938 113.246094 81.941406 113.296875 C 81.851562 113.5 81.769531 113.707031 81.695312 113.917969 C 81.675781 113.964844 81.660156 114.011719 81.644531 114.058594 C 81.585938 114.226562 81.53125 114.390625 81.480469 114.558594 C 81.460938 114.625 81.4375 114.691406 81.417969 114.761719 C 81.371094 114.921875 81.328125 115.082031 81.289062 115.242188 C 81.273438 115.304688 81.257812 115.359375 81.246094 115.421875 C 81.195312 115.640625 81.148438 115.859375 81.109375 116.078125 C 81.101562 116.113281 81.097656 116.148438 81.089844 116.183594 C 81.0625 116.371094 81.03125 116.558594 81.007812 116.746094 C 81 116.816406 80.992188 116.886719 80.984375 116.960938 C 80.96875 117.121094 80.953125 117.28125 80.941406 117.445312 C 80.9375 117.515625 80.929688 117.582031 80.925781 117.652344 C 80.914062 117.875 80.90625 118.097656 80.90625 118.328125 L 80.90625 118.332031 C 80.90625 118.339844 80.90625 118.339844 80.90625 118.347656 C 80.90625 118.535156 80.914062 118.726562 80.921875 118.917969 C 80.929688 119.070312 80.941406 119.226562 80.953125 119.378906 C 80.957031 119.40625 80.957031 119.429688 80.957031 119.457031 C 80.933594 119.484375 80.914062 119.511719 80.890625 119.539062 C 80.828125 119.609375 80.769531 119.683594 80.707031 119.753906 C 80.636719 119.835938 80.570312 119.921875 80.503906 120.003906 C 80.445312 120.078125 80.386719 120.15625 80.332031 120.230469 C 80.265625 120.316406 80.203125 120.402344 80.140625 120.484375 C 80.089844 120.5625 80.035156 120.640625 79.980469 120.71875 C 79.921875 120.808594 79.863281 120.894531 79.808594 120.980469 C 79.757812 121.0625 79.707031 121.144531 79.65625 121.222656 C 79.605469 121.3125 79.550781 121.402344 79.5 121.488281 C 79.449219 121.570312 79.40625 121.65625 79.359375 121.738281 C 79.308594 121.828125 79.261719 121.917969 79.214844 122.007812 C 79.171875 122.09375 79.128906 122.179688 79.085938 122.265625 C 79.042969 122.355469 79 122.445312 78.960938 122.535156 C 78.917969 122.628906 78.878906 122.714844 78.84375 122.800781 C 78.804688 122.894531 78.761719 122.984375 78.726562 123.078125 C 78.691406 123.164062 78.65625 123.257812 78.621094 123.347656 C 78.589844 123.4375 78.554688 123.53125 78.523438 123.625 C 78.488281 123.714844 78.457031 123.808594 78.425781 123.902344 C 78.398438 123.996094 78.371094 124.085938 78.34375 124.175781 C 78.3125 124.273438 78.285156 124.367188 78.261719 124.464844 C 78.234375 124.554688 78.210938 124.644531 78.191406 124.738281 C 78.164062 124.835938 78.140625 124.9375 78.121094 125.035156 C 78.097656 125.121094 78.082031 125.214844 78.0625 125.304688 C 78.042969 125.40625 78.023438 125.507812 78.003906 125.605469 C 77.988281 125.695312 77.972656 125.785156 77.957031 125.875 C 77.945312 125.976562 77.925781 126.082031 77.914062 126.183594 C 77.902344 126.269531 77.890625 126.359375 77.882812 126.445312 C 77.871094 126.550781 77.859375 126.660156 77.851562 126.769531 C 77.84375 126.851562 77.839844 126.933594 77.832031 127.019531 C 77.824219 127.132812 77.816406 127.242188 77.8125 127.347656 C 77.808594 127.433594 77.808594 127.515625 77.804688 127.597656 C 77.804688 127.707031 77.800781 127.820312 77.800781 127.933594 C 77.804688 128.011719 77.804688 128.09375 77.804688 128.171875 C 77.808594 128.289062 77.8125 128.40625 77.816406 128.523438 C 77.824219 128.597656 77.828125 128.671875 77.832031 128.746094 C 77.839844 128.867188 77.847656 128.988281 77.859375 129.105469 C 77.867188 129.175781 77.875 129.25 77.882812 129.320312 C 77.894531 129.441406 77.910156 129.5625 77.925781 129.6875 C 77.9375 129.753906 77.945312 129.820312 77.957031 129.886719 C 77.976562 130.011719 77.996094 130.140625 78.019531 130.265625 C 78.03125 130.328125 78.046875 130.394531 78.058594 130.453125 C 78.082031 130.585938 78.109375 130.710938 78.136719 130.84375 C 78.152344 130.898438 78.167969 130.957031 78.179688 131.015625 C 78.214844 131.148438 78.246094 131.28125 78.285156 131.414062 C 78.300781 131.464844 78.316406 131.519531 78.332031 131.574219 C 78.371094 131.707031 78.414062 131.84375 78.457031 131.976562 C 78.472656 132.027344 78.488281 132.074219 78.503906 132.121094 C 78.554688 132.261719 78.601562 132.398438 78.652344 132.535156 C 78.667969 132.578125 78.6875 132.621094 78.707031 132.664062 C 78.757812 132.804688 78.816406 132.945312 78.875 133.082031 C 78.890625 133.121094 78.910156 133.164062 78.929688 133.199219 C 78.992188 133.339844 79.054688 133.484375 79.125 133.621094 C 79.140625 133.660156 79.160156 133.691406 79.179688 133.730469 C 79.25 133.871094 79.320312 134.011719 79.398438 134.152344 C 79.414062 134.183594 79.4375 134.21875 79.453125 134.25 C 79.535156 134.390625 79.613281 134.535156 79.695312 134.671875 C 79.714844 134.703125 79.734375 134.730469 79.753906 134.761719 C 79.839844 134.902344 79.929688 135.039062 80.019531 135.175781 C 80.046875 135.214844 80.070312 135.246094 80.09375 135.285156 C 80.1875 135.414062 80.277344 135.542969 80.371094 135.671875 C 80.410156 135.722656 80.449219 135.769531 80.488281 135.824219 C 80.570312 135.929688 80.65625 136.042969 80.746094 136.148438 C 80.875 136.3125 81.007812 136.46875 81.148438 136.621094 C 81.300781 136.789062 81.460938 136.957031 81.617188 137.113281 L 106.445312 161.917969 Z M 134.1875 177.683594 L 115.417969 158.9375 C 115.414062 158.933594 115.414062 158.933594 115.414062 158.933594 L 87.589844 131.140625 C 87.539062 131.082031 87.484375 131.03125 87.433594 130.96875 C 87.304688 130.824219 87.1875 130.675781 87.082031 130.523438 C 87.050781 130.480469 87.027344 130.441406 87 130.398438 C 86.90625 130.261719 86.820312 130.113281 86.746094 129.964844 C 86.738281 129.953125 86.726562 129.933594 86.71875 129.917969 C 86.636719 129.753906 86.570312 129.589844 86.507812 129.417969 C 86.492188 129.375 86.480469 129.328125 86.464844 129.285156 C 86.417969 129.140625 86.378906 128.988281 86.34375 128.839844 C 86.339844 128.820312 86.335938 128.800781 86.328125 128.777344 C 86.351562 128.792969 86.375 128.804688 86.394531 128.820312 C 86.617188 128.972656 86.84375 129.121094 87.070312 129.257812 C 87.105469 129.28125 87.140625 129.300781 87.175781 129.320312 C 87.382812 129.445312 87.59375 129.558594 87.8125 129.671875 C 87.855469 129.695312 87.902344 129.71875 87.949219 129.742188 C 88.1875 129.863281 88.429688 129.972656 88.675781 130.078125 C 88.71875 130.097656 88.761719 130.113281 88.808594 130.132812 C 89.03125 130.222656 89.261719 130.308594 89.488281 130.394531 C 89.523438 130.402344 89.558594 130.417969 89.597656 130.429688 C 89.851562 130.515625 90.105469 130.589844 90.363281 130.660156 C 90.414062 130.671875 90.464844 130.6875 90.515625 130.699219 C 90.761719 130.761719 91.007812 130.816406 91.257812 130.867188 C 91.277344 130.871094 91.292969 130.875 91.3125 130.878906 C 91.578125 130.925781 91.84375 130.96875 92.109375 131 C 92.164062 131.007812 92.214844 131.011719 92.269531 131.019531 C 92.535156 131.054688 92.804688 131.074219 93.074219 131.085938 C 93.226562 134.15625 94.472656 137.179688 96.789062 139.492188 L 96.792969 139.492188 C 96.8125 139.511719 96.835938 139.53125 96.855469 139.550781 C 99.246094 141.910156 102.371094 143.136719 105.527344 143.21875 C 106.535156 143.242188 107.542969 143.15625 108.53125 142.945312 C 109.042969 144.988281 110.058594 146.917969 111.582031 148.527344 C 111.734375 148.691406 111.890625 148.84375 112.050781 149 C 112.105469 149.046875 112.160156 149.09375 112.210938 149.144531 C 112.320312 149.242188 112.429688 149.34375 112.539062 149.4375 C 112.605469 149.496094 112.671875 149.546875 112.738281 149.601562 C 112.839844 149.6875 112.941406 149.769531 113.046875 149.855469 C 113.117188 149.910156 113.191406 149.960938 113.265625 150.015625 C 113.367188 150.089844 113.464844 150.164062 113.566406 150.234375 C 113.644531 150.289062 113.726562 150.339844 113.804688 150.390625 C 113.902344 150.460938 114.003906 150.527344 114.105469 150.589844 C 114.1875 150.640625 114.269531 150.6875 114.351562 150.734375 C 114.453125 150.796875 114.554688 150.855469 114.65625 150.914062 C 114.742188 150.960938 114.828125 151.003906 114.910156 151.050781 C 115.015625 151.101562 115.117188 151.15625 115.222656 151.207031 C 115.308594 151.25 115.394531 151.289062 115.484375 151.332031 C 115.585938 151.378906 115.691406 151.425781 115.796875 151.472656 C 115.882812 151.511719 115.976562 151.550781 116.0625 151.582031 C 116.167969 151.628906 116.277344 151.667969 116.382812 151.707031 C 116.472656 151.742188 116.5625 151.773438 116.652344 151.804688 C 116.761719 151.84375 116.871094 151.878906 116.980469 151.914062 C 117.070312 151.941406 117.160156 151.972656 117.253906 152 C 117.363281 152.027344 117.472656 152.058594 117.582031 152.089844 C 117.671875 152.113281 117.765625 152.136719 117.855469 152.160156 C 117.96875 152.1875 118.082031 152.210938 118.195312 152.234375 C 118.285156 152.257812 118.378906 152.277344 118.46875 152.292969 C 118.582031 152.3125 118.695312 152.335938 118.8125 152.351562 C 118.902344 152.367188 118.996094 152.382812 119.082031 152.394531 C 119.199219 152.410156 119.320312 152.425781 119.4375 152.4375 C 119.523438 152.449219 119.613281 152.460938 119.703125 152.46875 C 119.824219 152.480469 119.945312 152.488281 120.0625 152.496094 C 120.152344 152.5 120.238281 152.503906 120.324219 152.507812 C 120.449219 152.519531 120.574219 152.519531 120.695312 152.519531 C 120.765625 152.519531 120.832031 152.523438 120.898438 152.523438 C 120.917969 152.523438 120.933594 152.523438 120.953125 152.523438 C 121.046875 152.523438 121.140625 152.519531 121.234375 152.519531 C 121.335938 152.515625 121.441406 152.511719 121.542969 152.507812 C 121.640625 152.5 121.738281 152.496094 121.832031 152.488281 C 121.933594 152.480469 122.03125 152.472656 122.132812 152.464844 C 122.230469 152.453125 122.328125 152.445312 122.425781 152.429688 C 122.523438 152.417969 122.621094 152.410156 122.722656 152.394531 C 122.820312 152.378906 122.917969 152.363281 123.015625 152.347656 C 123.113281 152.332031 123.210938 152.316406 123.308594 152.300781 C 123.40625 152.277344 123.503906 152.257812 123.601562 152.238281 C 123.695312 152.214844 123.792969 152.195312 123.890625 152.171875 C 123.988281 152.148438 124.082031 152.125 124.179688 152.101562 C 124.277344 152.074219 124.371094 152.046875 124.46875 152.019531 C 124.5625 151.992188 124.65625 151.964844 124.753906 151.933594 C 124.847656 151.902344 124.941406 151.871094 125.039062 151.839844 C 125.132812 151.808594 125.226562 151.777344 125.320312 151.742188 C 125.414062 151.707031 125.511719 151.671875 125.605469 151.632812 C 125.695312 151.597656 125.785156 151.5625 125.875 151.523438 C 125.972656 151.484375 126.066406 151.441406 126.164062 151.394531 C 126.25 151.355469 126.339844 151.316406 126.425781 151.277344 C 126.523438 151.230469 126.617188 151.183594 126.714844 151.132812 C 126.796875 151.089844 126.882812 151.046875 126.964844 151.003906 C 127.0625 150.949219 127.160156 150.894531 127.253906 150.839844 C 127.335938 150.792969 127.414062 150.75 127.496094 150.703125 C 127.59375 150.640625 127.691406 150.578125 127.789062 150.519531 C 127.863281 150.46875 127.941406 150.421875 128.015625 150.371094 C 128.113281 150.304688 128.214844 150.230469 128.3125 150.160156 C 128.382812 150.113281 128.453125 150.066406 128.519531 150.015625 C 128.628906 149.933594 128.738281 149.84375 128.84375 149.761719 C 128.898438 149.71875 128.957031 149.675781 129.011719 149.632812 C 129.171875 149.5 129.332031 149.359375 129.488281 149.21875 C 129.574219 149.144531 129.660156 149.066406 129.742188 148.980469 L 130.980469 147.746094 C 131.03125 147.699219 131.078125 147.648438 131.121094 147.597656 L 152.433594 126.265625 C 152.546875 126.835938 152.710938 127.394531 152.902344 127.945312 C 152.910156 127.972656 152.917969 127.996094 152.929688 128.023438 C 153.011719 128.261719 153.109375 128.5 153.207031 128.734375 C 153.234375 128.800781 153.261719 128.863281 153.289062 128.925781 C 153.382812 129.144531 153.484375 129.363281 153.59375 129.574219 C 153.628906 129.648438 153.671875 129.722656 153.710938 129.800781 C 153.789062 129.945312 153.859375 130.097656 153.945312 130.246094 C 155.222656 132.453125 157.070312 134.203125 159.28125 135.347656 C 159.292969 135.351562 159.300781 135.355469 159.308594 135.363281 C 159.832031 135.625 160.371094 135.859375 160.933594 136.058594 C 160.992188 136.082031 161.054688 136.101562 161.117188 136.125 C 161.390625 136.214844 161.664062 136.300781 161.945312 136.375 C 162.257812 136.464844 162.570312 136.53125 162.882812 136.589844 C 162.949219 136.601562 163.015625 136.617188 163.082031 136.625 C 163.386719 136.683594 163.695312 136.722656 163.996094 136.753906 C 164.046875 136.761719 164.097656 136.761719 164.144531 136.769531 C 164.425781 136.792969 164.703125 136.808594 164.980469 136.816406 C 165.035156 136.820312 165.085938 136.820312 165.136719 136.824219 C 165.441406 136.828125 165.738281 136.820312 166.039062 136.804688 C 166.105469 136.804688 166.167969 136.796875 166.234375 136.792969 C 166.527344 136.773438 166.820312 136.746094 167.113281 136.707031 C 167.125 136.703125 167.136719 136.703125 167.152344 136.703125 C 167.449219 136.660156 167.746094 136.605469 168.039062 136.542969 C 168.105469 136.53125 168.171875 136.515625 168.238281 136.503906 C 168.523438 136.4375 168.808594 136.363281 169.089844 136.28125 C 169.132812 136.265625 169.175781 136.253906 169.21875 136.242188 C 169.476562 136.160156 169.730469 136.074219 169.980469 135.980469 C 170.03125 135.960938 170.085938 135.941406 170.140625 135.917969 C 170.410156 135.8125 170.679688 135.699219 170.941406 135.574219 C 171 135.546875 171.054688 135.519531 171.113281 135.488281 C 171.363281 135.367188 171.609375 135.242188 171.851562 135.101562 C 171.875 135.09375 171.898438 135.078125 171.917969 135.066406 C 172.175781 134.921875 172.425781 134.761719 172.667969 134.597656 C 172.726562 134.5625 172.785156 134.523438 172.839844 134.484375 C 173.082031 134.320312 173.316406 134.144531 173.546875 133.964844 C 173.578125 133.941406 173.605469 133.914062 173.636719 133.890625 C 173.847656 133.71875 174.054688 133.542969 174.25 133.363281 C 174.296875 133.320312 174.339844 133.28125 174.386719 133.242188 C 174.597656 133.039062 174.804688 132.835938 175.003906 132.617188 C 175.046875 132.574219 175.085938 132.527344 175.128906 132.480469 C 175.3125 132.277344 175.496094 132.066406 175.667969 131.847656 C 175.691406 131.820312 175.710938 131.800781 175.730469 131.773438 C 175.914062 131.539062 176.085938 131.296875 176.257812 131.046875 C 176.277344 131.019531 176.296875 130.992188 176.316406 130.964844 L 176.347656 131.113281 C 176.878906 133.660156 178.113281 136 179.914062 137.878906 C 182.964844 141.066406 182.910156 146.199219 179.785156 149.316406 L 151.390625 177.683594 C 146.648438 182.421875 138.929688 182.425781 134.1875 177.683594 Z M 167.03125 210.503906 L 148.765625 192.25 L 192.164062 148.898438 L 195.917969 152.648438 L 171.078125 177.460938 C 169.425781 179.109375 169.425781 181.785156 171.078125 183.433594 C 171.902344 184.257812 172.984375 184.675781 174.066406 184.675781 C 175.148438 184.675781 176.230469 184.257812 177.054688 183.433594 L 188.789062 171.714844 C 189.464844 173.722656 190.601562 175.601562 192.195312 177.199219 L 192.199219 177.199219 C 193.652344 178.652344 195.347656 179.722656 197.152344 180.410156 Z M 206.34375 171.226562 C 204.09375 173.476562 200.429688 173.476562 198.175781 171.226562 C 195.921875 168.976562 195.921875 165.320312 198.175781 163.066406 C 200.425781 160.816406 204.085938 160.816406 206.339844 163.0625 L 206.351562 163.070312 C 207.441406 164.160156 208.039062 165.605469 208.039062 167.148438 C 208.039062 168.691406 207.4375 170.140625 206.34375 171.226562 Z M 206.34375 171.226562"/></g><path fill="#0C5A8C" d="M 167.050781 190.773438 C 167 190.503906 166.914062 190.238281 166.808594 189.980469 C 166.703125 189.726562 166.570312 189.484375 166.421875 189.253906 C 166.265625 189.019531 166.089844 188.808594 165.894531 188.609375 C 164.914062 187.632812 163.457031 187.179688 162.082031 187.460938 C 161.8125 187.511719 161.546875 187.59375 161.292969 187.699219 C 161.035156 187.804688 160.789062 187.933594 160.5625 188.082031 C 160.328125 188.238281 160.113281 188.417969 159.917969 188.609375 C 159.726562 188.808594 159.546875 189.019531 159.394531 189.253906 C 159.242188 189.484375 159.113281 189.726562 159.007812 189.980469 C 158.902344 190.238281 158.816406 190.503906 158.765625 190.773438 C 158.710938 191.042969 158.679688 191.324219 158.679688 191.597656 C 158.679688 191.871094 158.710938 192.152344 158.765625 192.421875 C 158.816406 192.691406 158.902344 192.957031 159.007812 193.210938 C 159.113281 193.46875 159.242188 193.714844 159.394531 193.941406 C 159.546875 194.175781 159.726562 194.386719 159.917969 194.582031 C 160.113281 194.777344 160.328125 194.953125 160.5625 195.105469 C 160.789062 195.257812 161.035156 195.390625 161.292969 195.496094 C 161.546875 195.601562 161.8125 195.679688 162.082031 195.738281 C 162.355469 195.789062 162.632812 195.820312 162.90625 195.820312 C 164.019531 195.820312 165.109375 195.367188 165.894531 194.582031 C 166.089844 194.386719 166.265625 194.171875 166.421875 193.941406 C 166.570312 193.714844 166.703125 193.464844 166.808594 193.210938 C 166.914062 192.957031 167 192.691406 167.050781 192.421875 C 167.101562 192.152344 167.132812 191.871094 167.132812 191.597656 C 167.132812 191.320312 167.101562 191.042969 167.050781 190.773438 Z M 167.050781 190.773438"/><path fill="#0C5A8C" d="M 167.050781 32.761719 C 167 32.492188 166.914062 32.226562 166.808594 31.972656 C 166.703125 31.714844 166.578125 31.46875 166.421875 31.242188 C 166.265625 31.007812 166.089844 30.792969 165.894531 30.601562 C 165.703125 30.40625 165.484375 30.230469 165.253906 30.078125 C 165.023438 29.925781 164.78125 29.792969 164.519531 29.6875 C 164.265625 29.582031 164 29.496094 163.730469 29.449219 C 163.1875 29.335938 162.628906 29.335938 162.082031 29.449219 C 161.8125 29.496094 161.546875 29.582031 161.292969 29.6875 C 161.035156 29.792969 160.789062 29.925781 160.5625 30.078125 C 160.328125 30.230469 160.113281 30.40625 159.917969 30.601562 C 159.726562 30.792969 159.546875 31.007812 159.394531 31.242188 C 159.242188 31.46875 159.113281 31.714844 159.007812 31.972656 C 158.902344 32.226562 158.820312 32.492188 158.765625 32.761719 C 158.710938 33.03125 158.679688 33.3125 158.679688 33.585938 C 158.679688 34.695312 159.132812 35.785156 159.917969 36.570312 C 160.113281 36.765625 160.328125 36.941406 160.5625 37.097656 C 160.789062 37.25 161.035156 37.382812 161.292969 37.488281 C 161.546875 37.59375 161.8125 37.671875 162.082031 37.730469 C 162.355469 37.78125 162.632812 37.808594 162.90625 37.808594 C 163.183594 37.808594 163.460938 37.78125 163.730469 37.730469 C 164 37.671875 164.265625 37.59375 164.519531 37.488281 C 164.78125 37.382812 165.023438 37.25 165.253906 37.097656 C 165.484375 36.941406 165.703125 36.765625 165.894531 36.570312 C 166.683594 35.785156 167.132812 34.695312 167.132812 33.585938 C 167.132812 33.3125 167.105469 33.03125 167.050781 32.761719 Z M 167.050781 32.761719"/></svg>